<?xml version="1.0" encoding="utf-8"?>
<!-- Generator: Adobe Illustrator 22.1.0, SVG Export Plug-In . SVG Version: 6.00 Build 0)  -->
<svg version="1.1" id="Layer_1" xmlns="http://www.w3.org/2000/svg" xmlns:xlink="http://www.w3.org/1999/xlink" x="0px" y="0px"
	 viewBox="0 0 13 13" style="enable-background:new 0 0 13 13;" xml:space="preserve">
<g>
	<path d="M1.7,12.7c-0.4,0.4-1,0.4-1.4,0c-0.4-0.4-0.4-1,0-1.4l4.8-4.8L0.3,1.7c-0.4-0.4-0.4-1,0-1.4c0.4-0.4,1-0.4,1.4,0l4.8,4.8
		l4.8-4.8c0.4-0.4,1-0.4,1.4,0c0.4,0.4,0.4,1,0,1.4L7.9,6.5l4.8,4.8c0.4,0.4,0.4,1,0,1.4c-0.4,0.4-1,0.4-1.4,0L6.5,7.9L1.7,12.7
		L1.7,12.7z"/>
</g>
</svg>
