<?xml version="1.0" encoding="utf-8"?>
<!-- Generator: Adobe Illustrator 22.1.0, SVG Export Plug-In . SVG Version: 6.00 Build 0)  -->
<svg version="1.1" id="Layer_1" xmlns="http://www.w3.org/2000/svg" xmlns:xlink="http://www.w3.org/1999/xlink" x="0px" y="0px"
	 viewBox="0 0 18 18" style="enable-background:new 0 0 18 18;" xml:space="preserve">
<style type="text/css">
	.st0{fill-rule:evenodd;clip-rule:evenodd;fill:#17C959;}
</style>
<g>
	<path class="st0" d="M9,0c5,0,9,4,9,9s-4,9-9,9s-9-4-9-9S4,0,9,0L9,0z M12.2,5.7c0.4-0.4,1-0.4,1.4,0c0.4,0.4,0.4,1,0,1.4l-5.1,5.1
		c-0.4,0.4-1,0.4-1.4,0L4.4,9.5C4,9.1,4,8.5,4.4,8.1c0.4-0.4,1-0.4,1.4,0l2,2L12.2,5.7L12.2,5.7z"/>
</g>
</svg>
