<?xml version="1.0" encoding="utf-8"?>
<!-- Generator: Adobe Illustrator 22.1.0, SVG Export Plug-In . SVG Version: 6.00 Build 0)  -->
<svg version="1.1" id="Layer_1" xmlns="http://www.w3.org/2000/svg" xmlns:xlink="http://www.w3.org/1999/xlink" x="0px" y="0px"
	 viewBox="0 0 204 34.7" style="enable-background:new 0 0 204 34.7;" xml:space="preserve">
<style type="text/css">
	.st0{fill:#303649;}
	.st1{fill:#F99D36;}
	.st2{fill:#0A89AD;}
	.st3{fill:#CC3794;}
</style>
<g>
	<path class="st0" d="M50.2,9.4l-2.6,19.9h4.5l1-7.5h4.6l0.5-3.7h-4.6l0.7-5.1h6l0.6-3.7H50.2L50.2,9.4z M62,15
		c-0.2,2.8-0.3,4-0.4,5.1l-1.2,9.3h4.5l1.2-8.9c0.8-1.1,1.8-1.6,2.7-1.6c0.4,0,0.7,0.1,1.2,0.2l1-4.1c-0.2-0.2-0.7-0.4-1.4-0.4
		c-1.5,0-2.6,1.4-3.5,3l-0.7-2.9L62,15L62,15z M71.3,24.1c0,3.4,1.5,5.5,4.5,5.5c1.8,0,3.9-0.8,5.7-2.1l-1-2.6
		c-1.4,0.7-3.1,1.2-4.3,1.2c-0.4-0.5-0.6-1.3-0.6-2.3c3.8-0.2,7.4-1.9,7.4-5.7c0-2.4-1.4-3.8-4.1-3.8C73.9,14.3,71.3,19.4,71.3,24.1
		L71.3,24.1z M77,17.7c0.4-0.1,0.7-0.2,1-0.2c0.7,0,1.1,0.4,1.1,1.2c0,1.4-1.2,2.5-3.4,2.7C76,20.1,76.4,18.8,77,17.7L77,17.7z
		 M84.6,24.1c0,3.4,1.5,5.5,4.5,5.5c1.8,0,3.9-0.8,5.7-2.1l-1-2.6c-1.4,0.7-3.1,1.2-4.3,1.2c-0.4-0.5-0.6-1.3-0.6-2.3
		c3.8-0.2,7.4-1.9,7.4-5.7c0-2.4-1.4-3.8-4.1-3.8C87.2,14.3,84.6,19.4,84.6,24.1L84.6,24.1z M90.3,17.7c0.4-0.1,0.7-0.2,1-0.2
		c0.7,0,1.1,0.4,1.1,1.2c0,1.4-1.2,2.5-3.4,2.7C89.3,20.1,89.7,18.8,90.3,17.7L90.3,17.7z M105.6,14.7c0,3.8-1,7.3-2.6,10.7H103
		l0.1-2.6l-0.4-8h-4.4c-0.1,0.5-0.1,1,0,1.7l1.4,13l4.4-0.1c4-5.1,6-10.8,6-13.7v-0.8H105.6L105.6,14.7z M111.3,23.9
		c0,3.1,1.5,5.8,5,5.8c5.3,0,7.3-5.8,7.3-9.6c0-3.1-1.4-5.8-5-5.8C113.4,14.3,111.4,20.2,111.3,23.9L111.3,23.9z M119.2,20.1
		c0,1.8-0.4,4.3-1.3,6c-0.3,0.2-0.6,0.3-0.9,0.3c-0.8,0-1.3-0.9-1.2-2.4c0-1.8,0.5-4.4,1.3-6c0.3-0.1,0.6-0.2,0.9-0.2
		C118.8,17.7,119.2,18.5,119.2,20.1L119.2,20.1z M128,9.4l-2.6,19.9h3.7l1.3-10l0.3-4.6h0.1l0.6,3.4l3.2,11.2h4.9l2.6-19.9h-3.7
		l-1.2,9.6l-0.4,4.9h0l-0.7-3.5l-3.1-11H128L128,9.4z M148.5,26.1c-0.4-0.4-0.6-1.2-0.6-2.4c0-1.8,0.5-4.1,1.4-5.6
		c0.3-0.1,0.7-0.2,1.1-0.2c0.2,0,0.5,0,0.8,0.1l-1,7.1C149.6,25.6,149.1,26,148.5,26.1L148.5,26.1z M143.4,24.7c0,2.7,0.8,5,3.1,5
		c1.3,0,2.9-0.7,4.1-2.1l0.4,1.9l3.4-0.5c0.1-3,0.3-4.3,0.4-5.4l1-8.1c-1.1-0.6-3.1-1.3-5-1.3C146.3,14.3,143.3,18.5,143.4,24.7
		L143.4,24.7z M158.1,18h1.7l-1,7.5c-0.3,2.6,0.6,4.1,2.7,4.1c2.5,0,4.6-1,5.1-1.4l-0.6-2.6c-0.5,0.1-1.5,0.3-2.4,0.3
		c-0.2-0.3-0.4-0.7-0.2-1.5l0.9-6.4h3.4l0.4-3.3h-3.4l0.6-4.6h-3.2l-1.9,4.6l-1.8,0.4L158.1,18L158.1,18z M170.7,14.7l-1.9,14.6h4.5
		l1.9-14.7L170.7,14.7L170.7,14.7z M171.2,10.9c0,1.1,0.7,1.8,1.9,1.8c1.5,0,2.7-1.1,2.7-2.7c0-1.1-0.7-1.8-1.9-1.8
		C172.4,8.2,171.2,9.3,171.2,10.9L171.2,10.9z M177,23.9c0,3.1,1.5,5.8,5,5.8c5.3,0,7.3-5.8,7.3-9.6c0-3.1-1.4-5.8-5-5.8
		C179,14.3,177,20.2,177,23.9L177,23.9z M184.9,20.1c0,1.8-0.4,4.3-1.3,6c-0.3,0.2-0.6,0.3-0.9,0.3c-0.8,0-1.3-0.9-1.2-2.4
		c0-1.8,0.5-4.4,1.3-6c0.3-0.1,0.6-0.2,0.9-0.2C184.4,17.7,184.9,18.5,184.9,20.1L184.9,20.1z M192.6,15c-0.2,2.9-0.3,4.1-0.4,5.2
		l-1.2,9.2h4.5l1.3-10c0.7-0.7,1.5-1.2,2.3-1.4c0.3,0.3,0.3,0.9,0.1,1.8l-1.2,9.6h4.5l1.4-11c0.3-2.3-0.1-4-2.7-4
		c-1.6,0-3.2,0.9-4.6,2.4l-0.6-2.2L192.6,15L192.6,15z"/>
	<path class="st1" d="M8.5,32c0,0,5-1.8,2.3-6.4C8.2,21,5.6,22,5.5,16c-1.6,1.9-4.9,6.3-5,10.3C0.5,29.9,2.7,33.9,8.5,32L8.5,32z"/>
	<path class="st2" d="M13.2,4.7c0,0-1.4,5.1,3.9,5.6c5.3,0.5,6-2.2,10.9,1.2c-0.6-2.4-2.3-7.6-5.6-10C19.5-0.6,15-1.2,13.2,4.7
		L13.2,4.7z"/>
	<path class="st3" d="M33.3,23.6c0,0-4-3.4-6.7,1.1c-2.7,4.5-0.6,6.3-5.7,9.3c2.4,0.5,7.9,1.2,11.4-0.8
		C35.4,31.6,37.9,27.8,33.3,23.6L33.3,23.6z"/>
	<path class="st0" d="M13.8,6.1c-0.1,0.4-1,4.4,3.3,4.8c1.9,0.2,3.1-0.1,4.2-0.3c1.8-0.3,3.1-0.6,5.5,0.7c-0.3-1-0.8-2.2-1.3-3.4
		c-0.9-1.8-2-3.7-3.6-4.8c-0.7-0.5-1.4-0.9-2.2-1.1c-0.9-0.3-1.8-0.3-2.6-0.1c-0.8,0.2-1.6,0.7-2.3,1.7c-0.1,0.1-0.2,0.3-0.3,0.5
		c3.7,0,7.2,2.3,7.2,2.3C22.1,6.6,22.2,7,22,7.3c-0.2,0.3-0.6,0.4-0.9,0.2c0,0-3.6-2.4-7.1-2C13.9,5.6,13.9,5.8,13.8,6.1L13.8,6.1
		L13.8,6.1z M32.5,23.4c-0.3-0.2-3.5-2.8-5.8,0.9c-1,1.6-1.3,2.8-1.6,3.9c-0.5,1.7-0.9,3.1-3.1,4.7c1,0.2,2.3,0.3,3.6,0.3
		c2,0,4.2-0.2,5.9-1.1c0,0,0,0,0,0c0.7-0.4,1.4-0.9,1.9-1.4c0.6-0.7,1.1-1.4,1.2-2.3c0.2-0.8,0-1.8-0.5-2.8c0,0,0,0,0,0
		c-0.1-0.1-0.2-0.3-0.3-0.4c-1.6,3.3-5.2,5.4-5.3,5.4c-0.3,0.2-0.7,0.1-0.8-0.2c-0.2-0.3-0.1-0.7,0.2-0.8c0,0,3.8-2.1,4.9-5.5
		C32.8,23.7,32.7,23.5,32.5,23.4L32.5,23.4z M25.7,23.6c2.9-4.7,7-1.7,7.6-1.2c0.2-2.2-0.8-4.8-4.3-7.6c-0.3-0.2-0.3-0.6-0.1-0.9
		c0.2-0.3,0.6-0.3,0.9-0.1c4.6,3.7,5.4,7.1,4.7,9.8c0.3,0.4,0.6,0.8,0.8,1.2c0,0,0,0,0,0c0.7,1.3,0.8,2.5,0.6,3.6
		c-0.2,1.1-0.8,2.1-1.6,2.9c-0.6,0.7-1.4,1.3-2.2,1.7c0,0,0,0,0,0c-1.9,1-4.3,1.3-6.5,1.3c-2.1,0-4.1-0.4-5.4-0.6
		c-0.2,0-0.4-0.1-0.5-0.3c-0.2-0.3-0.1-0.7,0.2-0.8c3-1.7,3.4-3,3.9-4.8C24.2,26.7,24.6,25.4,25.7,23.6L25.7,23.6z M4.1,24
		c0-0.3,0.3-0.6,0.6-0.6c0.3,0,0.6,0.3,0.6,0.6c0,0-0.2,4.3,2.1,7.1c0.2,0,0.4-0.1,0.6-0.1l0,0c0.4-0.1,4.2-1.5,2.3-5.3
		C9.6,24,8.7,23,7.9,22.2c-1.2-1.3-2.2-2.4-2.3-5.1c-0.7,0.8-1.5,1.8-2.2,2.9c-1.1,1.7-2,3.7-2.2,5.6c-0.1,0.8,0,1.6,0.2,2.4
		c0.2,0.9,0.7,1.7,1.3,2.3c0.6,0.6,1.5,1,2.6,1.1c0.2,0,0.4,0,0.6,0C3.9,28.2,4.1,24,4.1,24L4.1,24z M8.5,32.1
		c1.8,1.3,4.5,1.9,8.8,0.4c0.3-0.1,0.7,0.1,0.8,0.4c0.1,0.3-0.1,0.7-0.4,0.8c-5.6,1.9-8.9,0.8-10.8-1.2c-0.6,0.1-1.1,0.1-1.6,0
		c-1.4-0.1-2.5-0.6-3.4-1.4c-0.8-0.8-1.4-1.8-1.6-2.9C0,27.4,0,26.4,0,25.5c0.1-2.1,1.2-4.3,2.4-6.1c1.2-1.8,2.5-3.3,3.4-4.3l0,0
		c0.1-0.1,0.3-0.2,0.5-0.2c0.3,0,0.6,0.3,0.6,0.6c-0.2,3.5,0.7,4.5,2,5.8c0.8,0.9,1.8,1.9,2.7,3.8C14,30.1,9.3,31.9,8.5,32.1
		L8.5,32.1z M12.6,5.8c-2.1,0.8-4,2.8-4.9,7.3c-0.1,0.3-0.4,0.5-0.7,0.5c-0.3-0.1-0.5-0.4-0.5-0.7c1.3-5.8,4-8,6.7-8.6
		c0.2-0.5,0.5-1,0.8-1.4c0.8-1.2,1.9-1.8,3-2.1c1.1-0.3,2.2-0.2,3.3,0.1c0.9,0.3,1.8,0.7,2.5,1.3c1.7,1.3,3,3.2,4,5.2
		c0.9,1.9,1.5,3.9,1.8,5.1c0,0.2,0,0.4-0.1,0.5c-0.2,0.3-0.6,0.4-0.9,0.2c-2.9-2-4.2-1.7-6-1.4C20.4,12,19,12.3,17,12.1
		C11.5,11.5,12.4,6.6,12.6,5.8L12.6,5.8z"/>
</g>
</svg>
