<?xml version="1.0" encoding="utf-8"?>
<!-- Generator: Adobe Illustrator 22.1.0, SVG Export Plug-In . SVG Version: 6.00 Build 0)  -->
<svg version="1.1" id="Layer_1" xmlns="http://www.w3.org/2000/svg" xmlns:xlink="http://www.w3.org/1999/xlink" x="0px" y="0px"
	 viewBox="0 0 45 45" style="enable-background:new 0 0 45 45;" xml:space="preserve">
<style type="text/css">
	.st0{fill:#30374A;}
</style>
<g>
	<path class="st0" d="M29.4,29.4L29.4,29.4c2.6-2.6,4.2-6.2,4.2-10.1c0-3.9-1.6-7.5-4.2-10.1S23.2,5,19.3,5c-3.9,0-7.5,1.6-10.1,4.2
		C6.6,11.8,5,15.3,5,19.3c0,3.9,1.6,7.5,4.2,10.1c2.6,2.6,6.1,4.2,10.1,4.2C23.2,33.5,26.8,31.9,29.4,29.4L29.4,29.4z M34.5,31
		l9.7,9.7c1,1,1,2.6,0,3.5c-1,1-2.6,1-3.5,0L31,34.5c-3.3,2.5-7.3,4-11.7,4c-5.3,0-10.1-2.2-13.6-5.6C2.2,29.4,0,24.6,0,19.3
		C0,13.9,2.2,9.1,5.6,5.6C9.1,2.2,13.9,0,19.3,0s10.1,2.2,13.6,5.6c3.5,3.5,5.6,8.3,5.6,13.6C38.5,23.7,37.1,27.8,34.5,31L34.5,31z"
		/>
</g>
</svg>
