<?xml version="1.0" encoding="utf-8"?>
<!-- Generator: Adobe Illustrator 22.1.0, SVG Export Plug-In . SVG Version: 6.00 Build 0)  -->
<svg version="1.1" id="Layer_1" xmlns="http://www.w3.org/2000/svg" xmlns:xlink="http://www.w3.org/1999/xlink" x="0px" y="0px"
	 viewBox="0 0 18 18" style="enable-background:new 0 0 18 18;" xml:space="preserve">
<style type="text/css">
	.st0{fill-rule:evenodd;clip-rule:evenodd;fill:#898A8F;}
</style>
<g>
	<path class="st0" d="M14.8,0C16.5,0,18,1.5,18,3.2c0,1.8-1.5,3.3-3.3,3.3c-0.9,0-1.7-0.3-2.3-1l-6,3c0.1,0.5,0,1-0.1,1.4l3.2,2.2
		c0.5-0.4,1.2-0.7,2-0.7c1.8,0,3.3,1.5,3.3,3.2c0,1.8-1.5,3.3-3.3,3.3c-2.2,0-3.7-2.1-3.1-4.2l-3.2-2.2c-0.5,0.4-1.2,0.7-2,0.7
		c-2.9,0-4.4-3.5-2.3-5.5c1.3-1.3,3.4-1.3,4.6,0l6-3C11.2,1.8,12.8,0,14.8,0L14.8,0z"/>
</g>
</svg>
