<?xml version="1.0" encoding="utf-8"?>
<!-- Generator: Adobe Illustrator 22.1.0, SVG Export Plug-In . SVG Version: 6.00 Build 0)  -->
<svg version="1.1" id="Layer_1" xmlns="http://www.w3.org/2000/svg" xmlns:xlink="http://www.w3.org/1999/xlink" x="0px" y="0px"
	 viewBox="0 0 107.7 107.7" style="enable-background:new 0 0 107.7 107.7;" xml:space="preserve">
<style type="text/css">
	.st0{fill:#CA3593;}
</style>
<g>
	<path class="st0" d="M44.2,47.8c1,0,1.9,0.8,1.9,1.9c0,1-0.8,1.9-1.9,1.9h0c-1,0-1.9-0.8-1.9-1.9C42.3,48.7,43.2,47.8,44.2,47.8
		L44.2,47.8L44.2,47.8z M35,92.8c0-3.1-1.3-5.9-3.3-7.9c-1.5-1.5-3.3-2.5-5.4-3c-1,2.4-1.5,5.1-1.5,7.8c0,0.5,0,1,0,1.4h0l0,0
		c0,0.5,0.1,1,0.1,1.4c0.1,1-0.6,2-1.6,2.1c-1,0.1-2-0.6-2.1-1.6c-0.1-0.6-0.1-1.1-0.2-1.7h0c0-0.6-0.1-1.1-0.1-1.7
		c0-2.8,0.5-5.5,1.3-8c-2.5,0.3-4.8,1.5-6.5,3.2c-2,2-3.3,4.8-3.3,7.9c0,3.1,1.3,5.9,3.3,7.9c2,2,4.8,3.3,7.9,3.3
		c3.1,0,5.9-1.3,7.9-3.3C33.7,98.7,35,95.9,35,92.8L35,92.8z M34.4,82.2c2.7,2.7,4.4,6.4,4.4,10.6c0,4.1-1.7,7.9-4.4,10.6
		c-2.7,2.7-6.4,4.4-10.6,4.4c-4.1,0-7.9-1.7-10.6-4.4c-2.7-2.7-4.4-6.4-4.4-10.6s1.7-7.9,4.4-10.6c2.7-2.7,6.4-4.4,10.6-4.4
		c0.1,0,0.2,0,0.3,0c1.2-2.2,2.6-4.1,4.3-5.8c1.4-1.4,2.9-2.5,4.5-3.6H20.1c-5.5,0-10.6-2.3-14.2-5.9C2.2,58.9,0,53.8,0,48.3v-4.8
		v-1.9v-1.9v-9.1c0-7,2.8-13.3,7.4-17.9C12,8.1,18.3,5.3,25.3,5.3h13.9C39.4,4,40.1,2.9,41,2v0c1.2-1.2,2.9-2,4.7-2h0.6
		c1.8,0,3.5,0.7,4.7,2v0c1.2,1.2,2,2.9,2,4.7v22.9h5.3c1,0,1.9,0.8,1.9,1.9c0,1-0.8,1.9-1.9,1.9H53v6.4h23.2l0,0h8.4
		c0.8,0,1.5-0.3,2-0.8c0.5-0.5,0.9-1.3,0.9-2.1v-0.6c0-0.8-0.3-1.5-0.8-2c0,0-0.1,0-0.1-0.1c-0.5-0.5-1.3-0.9-2.1-0.9H73.3
		c-1,0-1.9-0.8-1.9-1.9c0-1,0.8-1.9,1.9-1.9h11.2c1.8,0,3.5,0.7,4.7,2c0,0,0.1,0.1,0.1,0.1c1.1,1.2,1.8,2.8,1.8,4.6v0.6
		c0,1-0.2,2-0.7,2.9h3.9c0.2-2.9,1.4-5.5,3.3-7.5c2.1-2.1,4.9-3.3,8.1-3.3c1,0,1.9,0.8,1.9,1.9c0,1-0.8,1.9-1.9,1.9
		c-2.1,0-4,0.9-5.4,2.2c-1.4,1.4-2.2,3.3-2.2,5.4c0,0.2,0,0.4,0,0.5c0,0.1,0,0.3,0,0.4c0,0.1,0,0.2,0,0.4c0,1-0.8,1.9-1.9,1.9h-7.9
		v4.8c0,5.5-2.2,10.6-5.9,14.2c-3.6,3.6-8.7,5.9-14.2,5.9h-9.1c1.6,1,3.1,2.2,4.5,3.6c1.7,1.7,3.2,3.7,4.3,5.8c0.1,0,0.2,0,0.3,0
		c4.1,0,7.9,1.7,10.6,4.4c2.7,2.7,4.4,6.4,4.4,10.6c0,4.1-1.7,7.9-4.4,10.6c-2.7,2.7-6.4,4.4-10.6,4.4c-4.1,0-7.9-1.7-10.6-4.4
		c-2.7-2.7-4.4-6.4-4.4-10.6c0-4.1,1.7-7.9,4.4-10.6c1.7-1.7,3.9-3.1,6.3-3.8c-0.9-1.4-1.9-2.6-3-3.8c-3.8-3.8-9.1-6.2-14.9-6.2H46
		c-5.8,0-11.1,2.4-14.9,6.2c-1.1,1.1-2.1,2.4-3,3.8C30.5,79.1,32.6,80.4,34.4,82.2L34.4,82.2z M79.6,92.8c0-3.1-1.3-5.9-3.3-7.9
		c-1.7-1.7-4-2.9-6.5-3.2c0.9,2.5,1.3,5.2,1.3,8c0,0.5,0,1.1-0.1,1.7l0,0c0,0.5-0.1,1.1-0.2,1.6c-0.1,1-1.1,1.8-2.1,1.6
		c-1-0.1-1.8-1.1-1.6-2.1c0.1-0.4,0.1-0.9,0.1-1.4l0,0c0-0.4,0-0.9,0-1.4c0-2.8-0.5-5.4-1.5-7.8c-2.1,0.5-3.9,1.5-5.4,3
		c-2,2-3.3,4.8-3.3,7.9c0,3.1,1.3,5.9,3.3,7.9c2,2,4.8,3.3,7.9,3.3c3.1,0,5.9-1.3,7.9-3.3C78.3,98.7,79.6,95.9,79.6,92.8L79.6,92.8z
		 M3.8,43.5v4.3h32.9c1,0,1.9,0.8,1.9,1.9c0,1-0.8,1.9-1.9,1.9H4.1c0.7,3.2,2.2,6,4.4,8.2c2.9,3,7,4.8,11.5,4.8H46l0.1,0l0.1,0h22.1
		c4.5,0,8.6-1.8,11.5-4.8c2.2-2.2,3.8-5.1,4.4-8.2H51.8c-1,0-1.9-0.8-1.9-1.9c0-1,0.8-1.9,1.9-1.9h32.9v-4.3h-0.1H53h-1.9h-8.3h-1.9
		H39H3.8L3.8,43.5z M39,9.1H25.3c-6,0-11.3,2.4-15.2,6.3c-3.9,3.9-6.3,9.3-6.3,15.2v9.1H39V9.1L39,9.1z M42.8,39.7h6.4v-8.3V6.7
		c0-0.8-0.3-1.5-0.9-2.1l0,0c-0.5-0.5-1.3-0.9-2.1-0.9h-0.6c-0.8,0-1.5,0.3-2.1,0.9l0,0c-0.5,0.5-0.8,1.3-0.8,2.1V39.7L42.8,39.7z
		 M65.8,29.5c1,0,1.9,0.8,1.9,1.9c0,1-0.8,1.9-1.9,1.9h0c-1,0-1.9-0.8-1.9-1.9C63.9,30.4,64.7,29.5,65.8,29.5L65.8,29.5L65.8,29.5z"
		/>
</g>
</svg>
