<?xml version="1.0" encoding="utf-8"?>
<!-- Generator: Adobe Illustrator 22.1.0, SVG Export Plug-In . SVG Version: 6.00 Build 0)  -->
<svg version="1.1" id="Layer_1" xmlns="http://www.w3.org/2000/svg" xmlns:xlink="http://www.w3.org/1999/xlink" x="0px" y="0px"
	 viewBox="0 0 107.7 107.7" style="enable-background:new 0 0 107.7 107.7;" xml:space="preserve">
<style type="text/css">
	.st0{fill:#CA3593;}
</style>
<g>
	<path class="st0" d="M98.9,70.4c1,0,1.9,0.8,1.9,1.9s-0.8,1.9-1.9,1.9h-90c-1,0-1.9-0.8-1.9-1.9s0.8-1.9,1.9-1.9H98.9L98.9,70.4z
		 M107.7,80.2v25.6c0,1-0.8,1.9-1.9,1.9H91.4c-1,0-1.9-0.8-1.9-1.9c0,0,0-0.1,0-0.1c-0.1-1.8-0.8-3.4-2-4.5c0,0-0.1-0.1-0.1-0.1
		c-1.2-1.1-2.8-1.9-4.6-1.9H61.4c-1,0-1.9-0.8-1.9-1.9s0.8-1.9,1.9-1.9h21.4c2.8,0,5.4,1.1,7.2,2.9c0,0,0.1,0.1,0.1,0.1
		c1.5,1.5,2.5,3.3,3,5.5H104V82.1H3.8V104h10.5c0.4-2.1,1.5-4,3-5.5l0,0c1.9-1.9,4.5-3,7.4-3h21.8c1,0,1.9,0.8,1.9,1.9
		s-0.8,1.9-1.9,1.9H24.6c-1.8,0-3.5,0.7-4.7,1.9l0,0l0,0c-1.2,1.2-2,2.9-2.1,4.7c0,1-0.9,1.8-1.9,1.8v0h-14c-1,0-1.9-0.8-1.9-1.9
		V80.2v-9.3c0-5.5,2.2-10.4,5.8-14c1.3-1.3,2.7-2.4,4.3-3.3V1.9c0-1,0.8-1.9,1.9-1.9h34.3c1,0,1.9,0.8,1.9,1.9c0,1-0.8,1.9-1.9,1.9
		H13.9v48.2c1.9-0.6,3.9-0.9,5.9-0.9h0.9c0-0.3-0.1-0.5-0.1-0.8c-0.1-1.1-0.2-2.2-0.2-3.3c0-2,0.2-3.9,0.7-5.7
		c0.5-1.9,1.1-3.6,2-5.2c0.4-0.7,1.2-1.1,2-0.9l0,0c1.6,0.3,3.3,0.5,5,0.7c1.7,0.2,3.4,0.3,5.2,0.3c1.9,0,3.8-0.1,5.7-0.2
		c1.9-0.2,3.7-0.4,5.4-0.7c0.8-0.1,1.6,0.3,2,1l0,0c0.8,1.6,1.5,3.3,2,5.2c0.4,1.8,0.7,3.7,0.7,5.7c0,1.1-0.1,2.2-0.2,3.3
		c0,0.3-0.1,0.5-0.1,0.8h6.4c0-0.3-0.1-0.5-0.1-0.8c-0.1-1.1-0.2-2.2-0.2-3.3c0-2,0.2-3.9,0.7-5.7c0.5-1.9,1.1-3.6,2-5.2
		c0.4-0.7,1.2-1.1,2-0.9l0,0c1.6,0.3,3.3,0.5,5,0.7c1.7,0.2,3.4,0.3,5.2,0.3c1.9,0,3.8-0.1,5.7-0.2c1.9-0.2,3.7-0.4,5.4-0.7
		c0.8-0.1,1.6,0.3,2,1l0,0c0.8,1.6,1.5,3.3,2,5.2c0.4,1.8,0.7,3.7,0.7,5.7c0,1.1-0.1,2.2-0.2,3.3c0,0.3-0.1,0.5-0.1,0.8h0.9
		c2.1,0,4.1,0.3,5.9,0.9V3.8H61.4c-1,0-1.9-0.8-1.9-1.9c0-1,0.8-1.9,1.9-1.9h34.3c1,0,1.9,0.8,1.9,1.9v51.7c1.6,0.9,3.1,2,4.3,3.3
		c3.6,3.6,5.8,8.6,5.8,14V80.2L107.7,80.2z M87.9,54.8h-3.2H59.4H48.3H23.1h-3.2c-2.5,0-4.8,0.6-7,1.6l-0.1,0
		c-1.6,0.8-3.1,1.8-4.4,3.1c-2.9,2.9-4.7,6.9-4.7,11.4v7.4H104v-7.4c0-4.4-1.8-8.5-4.7-11.4c-1.3-1.3-2.7-2.3-4.4-3.1l-0.1,0
		C92.7,55.4,90.3,54.8,87.9,54.8L87.9,54.8z M46.7,42.2c-0.3-1.1-0.6-2.1-1-3.1c-1.4,0.2-2.9,0.4-4.4,0.5c-1.9,0.2-3.9,0.2-6,0.2
		c-1.9,0-3.8-0.1-5.5-0.3c-1.4-0.1-2.7-0.3-3.9-0.5c-0.4,1-0.8,2-1.1,3.1c-0.4,1.5-0.6,3.1-0.6,4.8c0,1,0.1,1.9,0.2,2.8
		c0.1,0.4,0.1,0.9,0.2,1.3h22.3c0.1-0.4,0.2-0.8,0.2-1.3c0.1-0.9,0.2-1.8,0.2-2.8C47.2,45.3,47,43.7,46.7,42.2L46.7,42.2z M83,42.2
		c-0.3-1.1-0.6-2.1-1-3.1c-1.4,0.2-2.9,0.4-4.4,0.5c-1.9,0.2-3.9,0.2-6,0.2c-1.9,0-3.8-0.1-5.5-0.3c-1.4-0.1-2.7-0.3-3.9-0.5
		c-0.4,1-0.8,2-1.1,3.1c-0.4,1.5-0.6,3.1-0.6,4.8c0,1,0.1,1.9,0.2,2.8c0.1,0.4,0.1,0.9,0.2,1.3h22.3c0.1-0.4,0.2-0.8,0.2-1.3
		c0.1-0.9,0.2-1.8,0.2-2.8C83.6,45.3,83.4,43.7,83,42.2L83,42.2z M25.1,17.2c-1,0-1.9-0.8-1.9-1.9c0-1,0.8-1.9,1.9-1.9h57.4
		c1,0,1.9,0.8,1.9,1.9c0,1-0.8,1.9-1.9,1.9H25.1L25.1,17.2z M53.9,95.5c1,0,1.9,0.8,1.9,1.9c0,1-0.8,1.9-1.9,1.9h0
		c-1,0-1.9-0.8-1.9-1.9C52,96.3,52.8,95.5,53.9,95.5L53.9,95.5L53.9,95.5z M53.9,0c1,0,1.9,0.8,1.9,1.9s-0.8,1.9-1.9,1.9h0
		c-1,0-1.9-0.8-1.9-1.9S52.8,0,53.9,0L53.9,0L53.9,0z"/>
</g>
</svg>
