<?xml version="1.0" encoding="utf-8"?>
<!-- Generator: Adobe Illustrator 22.1.0, SVG Export Plug-In . SVG Version: 6.00 Build 0)  -->
<svg version="1.1" id="Layer_1" xmlns="http://www.w3.org/2000/svg" xmlns:xlink="http://www.w3.org/1999/xlink" x="0px" y="0px"
	 viewBox="0 0 107.7 107.7" style="enable-background:new 0 0 107.7 107.7;" xml:space="preserve">
<style type="text/css">
	.st0{fill:#CA3593;}
</style>
<g>
	<path class="st0" d="M26.3,56.5c1,0,1.9,0.8,1.9,1.9c0,1-0.8,1.9-1.9,1.9h0c-1,0-1.9-0.8-1.9-1.9C24.3,57.4,25.2,56.5,26.3,56.5
		L26.3,56.5L26.3,56.5z M72.3,70.2v-3.9c0-1.3,0.5-2.5,1.4-3.3l0,0c0.9-0.9,2-1.4,3.3-1.4h7.9c1.1,0,2,0.3,2.8,0.9
		c0.8-0.6,1.8-0.9,2.8-0.9h7.9c1.3,0,2.5,0.5,3.3,1.4l0,0c0.9,0.9,1.4,2,1.4,3.3v26.6c0,0.3,0,0.6-0.1,0.9h2.9c1,0,1.9,0.8,1.9,1.9
		v10.1c0,1-0.8,1.9-1.9,1.9s-1.9-0.8-1.9-1.9v-8.3h-5.6h-7.9h-5.6H77h-5.6h-7.9H34.1H18.4H3.8v8.3c0,1-0.8,1.9-1.9,1.9
		c-1,0-1.9-0.8-1.9-1.9V95.7c0-1,0.8-1.9,1.9-1.9H16l-3.9-15.4c-0.3-1,0.4-2,1.4-2.3c0.2,0,0.3-0.1,0.5-0.1v0h1.4
		c-4.4-4.8-2.5-10.3-2.5-10.3c0.2-0.7,0.8-1.1,1.4-1.3c0.8-0.2,5.7-1.4,10.1,2.6v-2.4c0-1,0.8-1.9,1.9-1.9c1,0,1.9,0.8,1.9,1.9v2.4
		c4.4-4,9.3-2.8,10.1-2.6c0.6,0.1,1.2,0.6,1.4,1.3c0,0,1.8,5.5-2.5,10.3h1.4c1,0,1.9,0.8,1.9,1.9c0,0.2,0,0.4-0.1,0.6l-3.9,15.3
		h22.4c-0.1-0.3-0.1-0.6-0.1-0.9v-18c0-1.3,0.5-2.5,1.4-3.3c0,0,0.1-0.1,0.1-0.1c0.8-0.8,2-1.3,3.2-1.3h7.9
		C71.7,70.2,72,70.2,72.3,70.2L72.3,70.2z M84.9,93.8c0.3,0,0.5-0.1,0.6-0.3l0,0c0.2-0.2,0.3-0.4,0.3-0.7V66.3
		c0-0.2-0.1-0.4-0.2-0.6l-0.1-0.1c-0.2-0.2-0.4-0.3-0.7-0.3H77c-0.3,0-0.5,0.1-0.7,0.3l0,0c-0.2,0.2-0.3,0.4-0.3,0.7v26.6
		c0,0.3,0.1,0.5,0.3,0.7l0,0c0.2,0.2,0.4,0.3,0.6,0.3H84.9L84.9,93.8z M71.3,93.8c0.3,0,0.5-0.1,0.6-0.3l0,0
		c0.2-0.2,0.3-0.4,0.3-0.7v-18c0-0.3-0.1-0.5-0.3-0.7l0,0c-0.2-0.2-0.4-0.3-0.7-0.3h-7.9c-0.2,0-0.4,0.1-0.6,0.2l-0.1,0.1
		c-0.2,0.2-0.3,0.4-0.3,0.7v18c0,0.3,0.1,0.5,0.3,0.7l0,0c0.2,0.2,0.4,0.3,0.6,0.3h0H71.3L71.3,93.8L71.3,93.8z M98.4,93.8
		c0.3,0,0.5-0.1,0.6-0.3l0,0c0.2-0.2,0.3-0.4,0.3-0.7V66.3c0-0.3-0.1-0.5-0.3-0.7l0,0c-0.2-0.2-0.4-0.3-0.7-0.3h-7.9
		c-0.3,0-0.5,0.1-0.7,0.3l0,0c-0.2,0.2-0.3,0.4-0.3,0.7v26.6c0,0.2,0.1,0.4,0.2,0.6l0.1,0.1c0.2,0.2,0.4,0.3,0.6,0.3H98.4L98.4,93.8
		z M23.2,76.1h1c0.1,0,0.2,0,0.2,0c0-0.1,0-0.3,0-0.5c0-0.1,0-0.3,0-0.4c0-1.3-0.5-3.2-2.2-5c-2.2-2.2-4.6-2.3-5.9-2.2
		c-0.1,1.3,0,3.7,2.2,5.9C20.1,75.5,21.8,76,23.2,76.1L23.2,76.1z M28.4,76.1h1c1.3-0.1,3.1-0.6,4.7-2.2c2.2-2.2,2.3-4.6,2.2-5.9
		c-1.3-0.1-3.7,0-5.9,2.2c-1.8,1.8-2.2,3.6-2.2,5c0,0.1,0,0.3,0,0.4c0,0.2,0,0.3,0,0.5C28.2,76.1,28.3,76.1,28.4,76.1L28.4,76.1z
		 M36.1,79.8H16.4l3.5,14h12.7L36.1,79.8L36.1,79.8z M99.7,23.9c0-4.1-1.7-7.9-4.4-10.6c-2.7-2.7-6.5-4.4-10.6-4.4
		c-4.1,0-7.9,1.7-10.6,4.4c-2.7,2.7-4.4,6.5-4.4,10.6c0,4.1,1.7,7.9,4.4,10.6c2.7,2.7,6.5,4.4,10.6,4.4c4.1,0,7.9-1.7,10.6-4.4
		C98,31.8,99.7,28,99.7,23.9L99.7,23.9z M98,10.6c3.4,3.4,5.5,8.1,5.5,13.3c0,5.2-2.1,9.9-5.5,13.3c-0.6,0.6-1.3,1.2-2,1.7h9.9
		c1,0,1.9,0.8,1.9,1.9v10.1c0,1-0.8,1.9-1.9,1.9H61.4c-1,0-1.9-0.8-1.9-1.9s0.8-1.9,1.9-1.9H104v-6.4H84.7H47.1H13.3H3.8V49h42.6
		c1,0,1.9,0.8,1.9,1.9s-0.8,1.9-1.9,1.9H1.9c-1,0-1.9-0.8-1.9-1.9V40.8c0-1,0.8-1.9,1.9-1.9h9.5v-37c0-1,0.8-1.9,1.9-1.9h9.4
		c1,0,1.9,0.8,1.9,1.9c0,1-0.8,1.9-1.9,1.9h-7.5v35.1h30V3.8h-7.5c-1,0-1.9-0.8-1.9-1.9c0-1,0.8-1.9,1.9-1.9h9.4
		c1,0,1.9,0.8,1.9,1.9v37h24.4c-0.7-0.5-1.4-1.1-2-1.7c-3.4-3.4-5.5-8.1-5.5-13.3c0-5.2,2.1-9.9,5.5-13.3c3.4-3.4,8.1-5.5,13.3-5.5
		C89.9,5.1,94.6,7.2,98,10.6L98,10.6z M23.6,30.4h13.1V12.2H23.6V30.4L23.6,30.4z M38.7,34.2H21.7c-1,0-1.9-0.8-1.9-1.9v-22
		c0-1,0.8-1.9,1.9-1.9h16.9c1,0,1.9,0.8,1.9,1.9v22C40.5,33.3,39.7,34.2,38.7,34.2L38.7,34.2z M84.7,25.7L84.7,25.7L84.7,25.7
		L84.7,25.7L84.7,25.7L84.7,25.7l-0.1,0l0,0l0,0l0,0l0,0v0l0,0v0l0,0v0l0,0v0l0,0v0l0,0v0l0,0v0l0,0v0l0,0l0,0l0,0v0l0,0v0l0,0v0
		l0,0v0l0,0v0l0,0v0l0,0v0l0,0l0,0l0,0v0l0,0v0l0,0v0l0,0l0,0l0,0l0,0l0,0v0l0,0v0l0,0v0l0,0v0l0,0v0l0,0l0,0l0,0v0l0,0v0l0,0v0l0,0
		v0l0,0v0l0,0v0l0,0l0,0l0,0v0l0,0v0l0,0l0,0l0,0v0l0,0v0l0,0v0l0,0v0l0,0l0,0l0,0v0l0,0v0l0,0v0l0,0v0l0,0v0l0,0v0l0,0v0l0,0l0,0
		l0,0v0l0,0v0l0,0l0,0l0,0v0l0,0v0l0,0l0,0l0,0v0l0,0l0,0l0,0v0v-8.5c0-1,0.8-1.9,1.9-1.9c1,0,1.9,0.8,1.9,1.9V22h4
		c1,0,1.9,0.8,1.9,1.9c0,1-0.8,1.9-1.9,1.9H84.7L84.7,25.7z M30.2,0c1,0,1.9,0.8,1.9,1.9c0,1-0.8,1.9-1.9,1.9h0
		c-1,0-1.9-0.8-1.9-1.9C28.3,0.8,29.1,0,30.2,0L30.2,0L30.2,0z M53.9,49c1,0,1.9,0.8,1.9,1.9c0,1-0.8,1.9-1.9,1.9h0
		c-1,0-1.9-0.8-1.9-1.9C52,49.9,52.8,49,53.9,49L53.9,49L53.9,49z"/>
</g>
</svg>
