<?xml version="1.0" encoding="utf-8"?>
<!-- Generator: Adobe Illustrator 22.1.0, SVG Export Plug-In . SVG Version: 6.00 Build 0)  -->
<svg version="1.1" id="Layer_1" xmlns="http://www.w3.org/2000/svg" xmlns:xlink="http://www.w3.org/1999/xlink" x="0px" y="0px"
	 viewBox="0 0 107.7 107.7" style="enable-background:new 0 0 107.7 107.7;" xml:space="preserve">
<style type="text/css">
	.st0{fill:#30374A;}
</style>
<g>
	<path class="st0" d="M54.7,30.2c1,0,1.9,0.8,1.9,1.9c0,1-0.8,1.9-1.9,1.9h0c-1,0-1.9-0.8-1.9-1.9C52.8,31,53.6,30.2,54.7,30.2
		L54.7,30.2L54.7,30.2z M104,29.1c-1.7,0.5-3.1,1.4-4.3,2.6c-1.6,1.7-2.6,3.9-2.6,6.4v31h6.9V29.1L104,29.1z M96.9,29.1
		c2.2-2.3,5.3-3.9,8.7-4.1c0.1,0,0.2,0,0.3,0c1,0,1.9,0.8,1.9,1.9v44.1v0v10.6c0,0.4-0.2,0.9-0.4,1.2v23c0,1-0.7,1.9-1.5,1.9
		c-0.8,0-1.5-0.8-1.5-1.9V83.6h-6.5c-1,0-1.9-0.8-1.9-1.9s0.8-1.9,1.9-1.9h6.1v-6.9h-8.7l0,0H86c-2.5,0-4.7,1-6.4,2.6
		c-1.2,1.2-2.1,2.6-2.6,4.3h5.8c1,0,1.9,0.8,1.9,1.9s-0.8,1.9-1.9,1.9h-6.1v22.3c0,1-0.8,1.9-1.8,1.9s-1.8-0.8-1.8-1.9V82.2
		c0,0,0-0.1,0-0.1c0-0.2,0-0.3,0-0.5c0.2-3.5,1.7-6.6,4.1-8.8c2.4-2.2,5.5-3.6,9-3.6h7.3v-31C93.3,34.7,94.7,31.5,96.9,29.1
		L96.9,29.1z M2.1,25.1c3.4,0.2,6.4,1.7,8.7,4.1c2.2,2.4,3.6,5.5,3.6,9v31h7.3c3.5,0,6.7,1.4,9,3.6c2.4,2.2,3.9,5.4,4.1,8.8
		c0,0.2,0,0.3,0,0.5c0,0,0,0.1,0,0.1v23.6c0,1-0.8,1.9-1.8,1.9c-1,0-1.8-0.8-1.8-1.9V83.6h-6.1c-1,0-1.9-0.8-1.9-1.9
		s0.8-1.9,1.9-1.9h5.8c-0.5-1.7-1.4-3.1-2.6-4.3c-1.7-1.6-3.9-2.6-6.4-2.6h-9.1l0,0H3.8v6.9h6.1c1,0,1.9,0.8,1.9,1.9
		s-0.8,1.9-1.9,1.9H3.4v22.3c0,1-0.7,1.9-1.5,1.9c-0.8,0-1.5-0.8-1.5-1.9v-23C0.2,82.5,0,82.1,0,81.7V71.1v0V26.9
		c0-1,0.8-1.9,1.9-1.9C2,25,2.1,25.1,2.1,25.1L2.1,25.1z M8.1,31.7c-1.2-1.2-2.6-2.1-4.3-2.6v40h6.9v-31
		C10.6,35.7,9.7,33.4,8.1,31.7L8.1,31.7z M42.2,107.7c-1,0-1.9-0.8-1.9-1.9c0-1,0.8-1.9,1.9-1.9h10.5V54.5c0-1,0.8-1.9,1.9-1.9
		c1,0,1.9,0.8,1.9,1.9V104h10.5c1,0,1.9,0.8,1.9,1.9c0,1-0.8,1.9-1.9,1.9H54.7l0,0l0,0H42.2L42.2,107.7z M42.2,3.8
		c-1,0-1.9-0.8-1.9-1.9c0-1,0.8-1.9,1.9-1.9h12.4h12.4c1,0,1.9,0.8,1.9,1.9c0,1-0.8,1.9-1.9,1.9H56.5v9.4H59c0.9,0,1.6,0.6,1.8,1.4
		l3.7,12.4c0.3,1-0.3,2-1.3,2.3c-0.2,0.1-0.4,0.1-0.5,0.1v0h-7.9h-8.3c-1,0-1.9-0.8-1.9-1.9c0-0.2,0-0.4,0.1-0.6l3.7-12.4
		c0.2-0.8,1-1.3,1.8-1.3v0h2.4V3.8H42.2L42.2,3.8z M62.2,56.4c-1,0-1.9-0.8-1.9-1.9c0-1,0.8-1.9,1.9-1.9h19.6v-4.2H27.5v4.2h19.6
		c1,0,1.9,0.8,1.9,1.9c0,1-0.8,1.9-1.9,1.9H25.7c-1,0-1.9-0.8-1.9-1.9v-8c0-1,0.8-1.9,1.9-1.9h58c1,0,1.9,0.8,1.9,1.9v8
		c0,1-0.8,1.9-1.9,1.9H62.2L62.2,56.4z M49.1,25.7h5.8h5.4L57.6,17h-2.9h-2.9L49.1,25.7L49.1,25.7z M44.8,26.9
		c0.3-0.7,1-1.2,1.8-1.2L44.8,26.9L44.8,26.9z M17.4,79.8c1,0,1.9,0.8,1.9,1.9c0,1-0.8,1.9-1.9,1.9h0c-1,0-1.9-0.8-1.9-1.9
		C15.5,80.7,16.3,79.8,17.4,79.8L17.4,79.8L17.4,79.8z M90.3,79.8c1,0,1.9,0.8,1.9,1.9c0,1-0.8,1.9-1.9,1.9h0c-1,0-1.9-0.8-1.9-1.9
		C88.4,80.7,89.3,79.8,90.3,79.8L90.3,79.8L90.3,79.8z"/>
</g>
</svg>
