<?xml version="1.0" encoding="utf-8"?>
<!-- Generator: Adobe Illustrator 22.1.0, SVG Export Plug-In . SVG Version: 6.00 Build 0)  -->
<svg version="1.1" id="Layer_1" xmlns="http://www.w3.org/2000/svg" xmlns:xlink="http://www.w3.org/1999/xlink" x="0px" y="0px"
	 viewBox="0 0 107.7 107.7" style="enable-background:new 0 0 107.7 107.7;" xml:space="preserve">
<style type="text/css">
	.st0{fill:#30374A;}
</style>
<g>
	<path class="st0" d="M83.2,46.4c1,0,1.9,0.8,1.9,1.9s-0.8,1.9-1.9,1.9h0c-1,0-1.9-0.8-1.9-1.9S82.1,46.4,83.2,46.4L83.2,46.4
		L83.2,46.4z M17.6,104l11.2-31.5c0.1-0.2,0.1-0.3,0.2-0.4c-2.7-2-5.2-4.4-7.4-7c-3.9-4.7-6.8-10.4-8.3-16.5H1.9
		c-1,0-1.9-0.8-1.9-1.9s0.8-1.9,1.9-1.9h10.6c-0.2-1.6-0.4-3.1-0.5-4.8c-0.9-0.3-1.8-0.8-2.5-1.5c0,0-0.1-0.1-0.1-0.1
		c-1.1-1.1-1.8-2.7-1.8-4.4c0-1.7,0.7-3.3,1.8-4.4c1.1-1.1,2.7-1.8,4.4-1.8h80c1.7,0,3.3,0.7,4.4,1.8l0,0c1.1,1.1,1.8,2.7,1.8,4.4
		c0,1.7-0.7,3.2-1.7,4.3c0,0-0.1,0.1-0.1,0.1c-0.7,0.7-1.6,1.3-2.6,1.6c-0.1,1.6-0.2,3.2-0.5,4.8h10.6c1,0,1.9,0.8,1.9,1.9
		s-0.8,1.9-1.9,1.9H94.5c-1.5,6.2-4.4,11.8-8.3,16.5c-2.2,2.6-4.6,5-7.4,7c0.1,0.1,0.2,0.3,0.2,0.4L90.2,104h5c1,0,1.9,0.8,1.9,1.9
		c0,1-0.9,1.9-1.9,1.9H81.6c-1,0-1.9-0.8-1.9-1.9s0.9-1.9,1.9-1.9h4.6L81,89.4H26.7L21.6,104h4.6c1,0,1.9,0.8,1.9,1.9
		s-0.8,1.9-1.9,1.9H12.6c-1,0-1.9-0.8-1.9-1.9c0-1,0.8-1.9,1.9-1.9H17.6L17.6,104z M32.1,74.2l-4,11.4h51.6l-4-11.4
		c-4.2,2.6-8.9,4.4-13.9,5.3c-1,0.2-2-0.5-2.2-1.5c-0.2-1,0.5-2,1.5-2.2c8.9-1.7,16.7-6.5,22.2-13.2c5.1-6.1,8.3-13.9,8.7-22.4H61.4
		c-1,0-1.9-0.8-1.9-1.9c0-1,0.8-1.9,1.9-1.9h32.5h0c0.7,0,1.3-0.3,1.8-0.7c0,0,0,0,0.1-0.1c0.4-0.4,0.7-1,0.7-1.7
		c0-0.7-0.3-1.3-0.7-1.8l0,0l0,0c-0.5-0.5-1.1-0.7-1.8-0.7h-80c-0.7,0-1.3,0.3-1.8,0.7c-0.5,0.5-0.7,1.1-0.7,1.8
		c0,0.7,0.3,1.3,0.7,1.8c0,0,0,0.1,0.1,0.1c0.4,0.4,1,0.7,1.7,0.7h0h32.5c1,0,1.9,0.8,1.9,1.9c0,1-0.8,1.9-1.9,1.9H15.8
		c0.1,2,0.4,4,0.8,5.9c0,0,0,0.1,0,0.1c1.3,6.1,4.1,11.7,7.9,16.3c5.5,6.7,13.3,11.5,22.2,13.2c1,0.2,1.7,1.2,1.5,2.2
		c-0.2,1-1.2,1.7-2.2,1.5C41,78.6,36.3,76.8,32.1,74.2L32.1,74.2z M71.6,23.1c-0.6,0.8-1.8,1-2.6,0.3c-0.8-0.6-1-1.8-0.3-2.6
		c0.2-0.2,0.4-0.5,0.7-0.8l0,0l0,0c0.2-0.2,0.4-0.4,0.7-0.6c0.1-0.1,0.1-0.1,0.2-0.2c1-0.9,2.4-2.1,2.2-3.8
		c-0.2-1.8-1.9-2.7-3.1-3.3l0,0l0,0l0,0l0,0l0,0c-0.8-0.4-1.4-0.8-1.9-1.2c-0.7-0.6-1.1-1.3-1.2-2.2c-0.1-0.9,0.1-1.7,0.7-2.4
		c0.4-0.5,0.8-0.9,1.5-1.5c0.1-0.1,0.1-0.1,0.2-0.2c0.9-0.8,2-1.7,2.2-2.9c0.2-1,1.1-1.7,2.1-1.6c1,0.2,1.7,1.1,1.6,2.1
		c-0.4,2.7-2.2,4.2-3.5,5.3l0,0c-0.3,0.3-0.6,0.5-0.8,0.7c0.2,0.1,0.5,0.3,0.9,0.5c0,0,0.1,0,0.1,0.1l0,0l0,0c2,1,4.6,2.4,5,6.2
		c0.4,3.8-1.9,5.7-3.5,7.2l0,0c-0.3,0.2-0.5,0.4-0.7,0.6l0,0C71.8,22.9,71.7,23,71.6,23.1L71.6,23.1z M54.3,23.1
		c-0.6,0.8-1.8,1-2.6,0.3c-0.8-0.6-1-1.8-0.3-2.6c0.2-0.3,0.4-0.5,0.7-0.8c0.2-0.2,0.5-0.5,0.8-0.7l0,0c1-0.9,2.5-2.1,2.3-3.9
		c-0.2-1.8-1.9-2.7-3.1-3.3l0,0l0,0l0,0l0,0l0,0c-0.8-0.4-1.4-0.8-1.9-1.2c-0.7-0.6-1.1-1.3-1.2-2.2C48.7,7.7,49,7,49.5,6.2
		c0.4-0.5,0.8-0.9,1.5-1.5c0.1-0.1,0.1-0.1,0.2-0.2c0.9-0.8,2-1.7,2.2-2.9c0.2-1,1.1-1.7,2.1-1.6c1,0.2,1.7,1.1,1.6,2.1
		c-0.4,2.6-2.2,4.2-3.5,5.3l0,0C53.3,7.8,53,8,52.8,8.2c0.2,0.1,0.5,0.3,0.9,0.5c0,0,0.1,0,0.1,0.1l0,0l0,0c2,1,4.6,2.4,5,6.2
		c0.4,3.7-1.8,5.7-3.4,7.1c-0.1,0.1-0.1,0.1-0.2,0.2c-0.2,0.2-0.4,0.4-0.6,0.5C54.4,22.9,54.3,23,54.3,23.1L54.3,23.1z M36.9,23.1
		c-0.6,0.8-1.8,1-2.6,0.3c-0.8-0.6-1-1.8-0.3-2.6c0.2-0.3,0.4-0.5,0.7-0.8c0.2-0.2,0.4-0.4,0.7-0.6c0.1-0.1,0.1-0.1,0.2-0.2
		c1-0.9,2.4-2.1,2.2-3.8c-0.2-1.8-1.9-2.7-3.1-3.3l0,0l0,0l0,0l0,0l0,0c-0.8-0.4-1.4-0.8-1.9-1.2c-0.7-0.6-1.1-1.3-1.2-2.2
		c-0.1-0.9,0.1-1.7,0.7-2.4c0.4-0.5,0.8-0.9,1.5-1.5c0.1-0.1,0.1-0.1,0.2-0.2c0.9-0.8,2-1.7,2.2-2.9c0.2-1,1.1-1.7,2.1-1.6
		c1,0.2,1.7,1.1,1.6,2.1c-0.4,2.7-2.2,4.2-3.5,5.3l0,0c-0.3,0.3-0.6,0.5-0.8,0.7c0.2,0.1,0.5,0.3,0.9,0.5c0,0,0.1,0,0.1,0.1l0,0l0,0
		c2,1,4.6,2.4,5,6.2c0.4,3.8-1.9,5.8-3.6,7.2l0,0c-0.3,0.2-0.5,0.4-0.7,0.6C37.1,22.9,37,23,36.9,23.1L36.9,23.1z M66.1,69.5
		c-0.9,0.5-2.1,0.1-2.5-0.8c-0.5-0.9-0.1-2.1,0.8-2.5c3-1.5,5.7-3.4,8.1-5.6c2.5-2.2,4.6-4.7,6.4-7.5c0.6-0.9,1.7-1.1,2.6-0.5
		c0.9,0.6,1.1,1.7,0.5,2.6c-2,3-4.4,5.8-7.1,8.2C72.4,65.8,69.4,67.9,66.1,69.5L66.1,69.5z M53.9,76.5c1,0,1.9,0.8,1.9,1.9
		s-0.8,1.9-1.9,1.9h0c-1,0-1.9-0.8-1.9-1.9S52.8,76.5,53.9,76.5L53.9,76.5L53.9,76.5z M53.9,36.5c1,0,1.9,0.8,1.9,1.9
		c0,1-0.8,1.9-1.9,1.9h0c-1,0-1.9-0.8-1.9-1.9C52,37.4,52.8,36.5,53.9,36.5L53.9,36.5L53.9,36.5z"/>
</g>
</svg>
