<?xml version="1.0" encoding="utf-8"?>
<!-- Generator: Adobe Illustrator 22.1.0, SVG Export Plug-In . SVG Version: 6.00 Build 0)  -->
<svg version="1.1" id="Layer_1" xmlns="http://www.w3.org/2000/svg" xmlns:xlink="http://www.w3.org/1999/xlink" x="0px" y="0px"
	 viewBox="0 0 107.7 107.7" style="enable-background:new 0 0 107.7 107.7;" xml:space="preserve">
<style type="text/css">
	.st0{fill:#30374A;}
</style>
<g>
	<path class="st0" d="M53.9,104c1,0,1.9,0.8,1.9,1.9c0,1-0.8,1.9-1.9,1.9h0c-1,0-1.9-0.8-1.9-1.9C52,104.8,52.8,104,53.9,104
		L53.9,104L53.9,104z M35.4,3.8c-1,0-1.9-0.8-1.9-1.9c0-1,0.8-1.9,1.9-1.9h6.1h12.4h52c1,0,1.9,0.8,1.9,1.9v52v52
		c0,1-0.8,1.9-1.9,1.9H61.4c-1,0-1.9-0.8-1.9-1.9c0-1,0.8-1.9,1.9-1.9h10.8l-2.6-1.5c-0.9-0.5-1.2-1.7-0.7-2.6l0,0l14.9-26.7
		c0.5-0.9,1.6-1.2,2.6-0.7l0,0l0,0l7.2,4.2l1.9-3.4c0.5-0.9,1.6-1.2,2.6-0.7l0,0l0,0l5.9,3.4V55.7H93.5h-6.1H72.3H53.9H3.8V104h7.7
		V90.6v-8.2v-8.1c0-1,0.8-1.9,1.9-1.9h11.8c1,0,1.9,0.8,1.9,1.9v8.1v8.2V104h19.3c1,0,1.9,0.8,1.9,1.9c0,1-0.8,1.9-1.9,1.9H25.2
		H13.4H1.9c-1,0-1.9-0.8-1.9-1.9v-52v-52C0,0.8,0.8,0,1.9,0h18.5c1,0,1.9,0.8,1.9,1.9c0,1-0.8,1.9-1.9,1.9H3.8V52h13.8V34.3
		c0-1,0.8-1.9,1.9-1.9h7.3v-9.2c0-1,0.8-1.9,1.9-1.9h8.9c1,0,1.9,0.8,1.9,1.9V52H52V3.8H41.5H35.4L35.4,3.8z M27.9,0
		c1,0,1.9,0.8,1.9,1.9c0,1-0.8,1.9-1.9,1.9h0c-1,0-1.9-0.8-1.9-1.9C26,0.8,26.8,0,27.9,0L27.9,0L27.9,0z M104,86.3L94.1,104h9.9
		V86.3L104,86.3z M83.9,104l-1.1-0.6l-0.4,0.6H83.9L83.9,104z M90.2,103.3l13.1-23.5l-5.4-3.2l-13.1,23.5L90.2,103.3L90.2,103.3z
		 M78.5,103.3l13.1-23.5l-5.4-3.2l-13.1,23.5L78.5,103.3L78.5,103.3z M15.3,80.5h4h4v-4.3h-8V80.5L15.3,80.5z M23.3,104V92.5h-4h-4
		V104H23.3L23.3,104z M23.3,84.3h-4h-4v4.5h4h4V84.3L23.3,84.3z M35.6,52V25.1h-5.1v9.2V52H35.6L35.6,52z M26.7,52V36.2h-5.4V52
		H26.7L26.7,52z M72.3,52h15.1h6.1H104V3.8H55.7V52H72.3L72.3,52z M79.9,26c1,0,1.9,0.8,1.9,1.9s-0.8,1.9-1.9,1.9h0
		c-1,0-1.9-0.8-1.9-1.9S78.8,26,79.9,26L79.9,26L79.9,26z"/>
</g>
</svg>
