<?xml version="1.0" encoding="utf-8"?>
<!-- Generator: Adobe Illustrator 22.1.0, SVG Export Plug-In . SVG Version: 6.00 Build 0)  -->
<svg version="1.1" id="Layer_1" xmlns="http://www.w3.org/2000/svg" xmlns:xlink="http://www.w3.org/1999/xlink" x="0px" y="0px"
	 viewBox="0 0 107.7 107.7" style="enable-background:new 0 0 107.7 107.7;" xml:space="preserve">
<style type="text/css">
	.st0{fill:#30374A;}
</style>
<g>
	<path class="st0" d="M79.9,34.7c1,0,1.9,0.8,1.9,1.9s-0.8,1.9-1.9,1.9h0c-1,0-1.9-0.8-1.9-1.9S78.8,34.7,79.9,34.7L79.9,34.7
		L79.9,34.7z M43.2,28.6c0-1,0.8-1.9,1.9-1.9s1.9,0.8,1.9,1.9v2.9c0,1-0.8,1.9-1.9,1.9s-1.9-0.8-1.9-1.9V28.6L43.2,28.6z M37.5,32.4
		c0-1,0.8-1.9,1.9-1.9s1.9,0.8,1.9,1.9v2.9c0,1-0.8,1.9-1.9,1.9s-1.9-0.8-1.9-1.9V32.4L37.5,32.4z M25.8,38l0.2-0.2
		c0.3-0.4,0.5-0.7,0.7-0.9c2-3,3.1-6.1,3.7-8.5c-2.2,1.6-4.9,4-7,7.1c-0.1,0.1-0.2,0.2-0.3,0.3c0,0.2-0.1,0.5-0.1,0.7
		c-0.1,0.5-0.2,1-0.3,1.5H25.8L25.8,38z M23.2,29.7c3.9-4.1,8.2-6.5,8.8-6.9c0.3-0.2,0.7-0.3,1.1-0.3c1,0.1,1.8,1,1.7,2
		c0,0-0.5,7.7-5.1,14.4l0,0.1c0.1,0.3,0.2,0.5,0.2,0.9c0,0.2,0,0.4-0.1,0.6l-3.3,13.6h8.6c-0.4-0.8-0.6-1.7-0.6-2.6v-9.9
		c0-1,0.8-1.9,1.9-1.9h11.8c1,0,1.9,0.8,1.9,1.9v9.9c0,0.9-0.2,1.8-0.6,2.6h15.9l0,0h7.4V43.5h-13l-0.1,0h0l-0.1,0l0,0l-0.1,0l0,0
		l-0.1,0l0,0l-0.1,0l0,0l-0.1,0l0,0l-0.1,0l0,0l-0.1,0l0,0l-0.1,0l0,0l-0.1,0l0,0l-0.1,0l0,0l-0.1,0l0,0l-0.1,0l0,0l-0.1,0l-0.1,0
		l0,0l0,0l0,0l-0.1,0l0,0l0,0l0,0l0,0l0,0l0,0l0,0l0,0l0,0l0,0l-0.1,0l0,0l0,0l-0.1,0l-0.1,0l0,0l-0.1,0l0,0l-0.1,0l0,0l-0.1,0l0,0
		l-0.1,0l-0.1,0l0,0l0,0l-0.1,0l0,0l-0.1,0l0,0L57,43l0,0l-0.1,0l0,0l-0.1,0l-0.1,0l0,0l-0.1,0l0,0l-0.1,0l0,0l-0.1,0l0,0l-0.1,0
		l0,0l-0.1,0l0,0l-0.1,0l0,0l-0.1,0l0,0l-0.1,0l0,0l-0.1,0l0,0l-0.1,0l0,0l0,0l0,0l0,0l0,0l-0.1,0l0,0l0,0l0,0l0,0l0,0l0,0l0,0
		c0,0-0.1-0.1-0.1-0.1l0,0l0,0l0,0c-0.1,0-0.1-0.1-0.2-0.1l0,0l0,0l0,0l0,0l0,0l0,0l0,0l0,0l-0.1-0.1l0,0l0,0l0,0l0,0l0,0
		c0,0-0.1-0.1-0.1-0.1c-1.3-1.3-2.1-3-2.1-5v-5V7.1c0-1.9,0.8-3.7,2.1-5l0,0l0,0l0,0c1.3-1.3,3-2.1,5-2.1H100c1.9,0,3.7,0.8,5,2.1
		l0,0c1.3,1.3,2.1,3,2.1,5v24.4v5c0,1.9-0.8,3.7-2.1,5c0,0-0.1,0.1-0.1,0.1l0,0l0,0l0,0l0,0l0,0l-0.1,0.1l0,0l0,0l0,0l0,0l0,0l0,0
		l0,0l0,0l-0.1,0.1l0,0l-0.1,0l0,0l0,0l0,0l0,0c0,0-0.1,0.1-0.1,0.1l0,0l0,0l0,0l0,0l0,0l0,0l0,0l-0.1,0l0,0l0,0l0,0l0,0l0,0l-0.1,0
		l0,0l-0.1,0l0,0l-0.1,0l0,0l-0.1,0l0,0l-0.1,0l0,0l-0.1,0l0,0l-0.1,0l0,0l-0.1,0l0,0l-0.1,0l0,0l-0.1,0l0,0l-0.1,0l-0.1,0l0,0
		l-0.1,0l0,0l-0.1,0l0,0l-0.1,0l0,0l-0.1,0l0,0l-0.1,0l0,0l-0.1,0l-0.1,0l0,0l0,0l-0.1,0l0,0l-0.1,0h0l-0.1,0l0,0l0,0l-0.1,0l0,0
		l-0.1,0l0,0l0,0l0,0l0,0l0,0l0,0l0,0l0,0l0,0l0,0l-0.1,0l0,0l0,0l0,0l-0.1,0l-0.1,0l0,0l-0.1,0l0,0l-0.1,0l0,0l-0.1,0l0,0l-0.1,0
		l0,0l-0.1,0l0,0l-0.1,0l0,0l-0.1,0l0,0l-0.1,0l0,0l-0.1,0l0,0l-0.1,0l0,0l-0.1,0l0,0l-0.1,0h0l-0.1,0H86.2v10.6H89v-1.5
		c0-1.7,0.7-3.2,1.8-4.3c1.1-1.1,2.6-1.8,4.3-1.8c1.6,0,3.1,0.6,4.2,1.7c0,0,0.1,0.1,0.1,0.1c1.1,1.1,1.8,2.6,1.8,4.3v1.5h4.7
		c1,0,1.9,0.8,1.9,1.9v16.5v0.4v16.1v0.4v16.5c0,1-0.8,1.9-1.9,1.9H65.3c-1,0-1.9-0.8-1.9-1.9V89.4v-0.4V72.9v-0.4v-2.8H41.1
		c-1,0-1.9-0.8-1.9-1.9c0-1,0.8-1.9,1.9-1.9h22.3v-8.1H3.8v8.1H26c1,0,1.9,0.8,1.9,1.9c0,1-0.8,1.9-1.9,1.9H3.8v36.2
		c0,1-0.8,1.9-1.9,1.9S0,106.9,0,105.8v-38l0,0V56c0-1,0.8-1.9,1.9-1.9h6.4L5,40.4c-0.1-0.5,0-0.9,0.2-1.3l0-0.1
		C0.5,32.3,0,24.6,0,24.6l0,0c0-0.3,0-0.7,0.2-1c0.5-0.9,1.6-1.3,2.5-0.8c0,0,4.7,2.4,8.9,6.8c0.6-7.5,4-13.3,4.1-13.6
		c0.2-0.3,0.4-0.5,0.7-0.7c0.9-0.5,2-0.2,2.6,0.7C19,16,22.6,21.9,23.2,29.7L23.2,29.7z M11.7,35.6c-0.1-0.1-0.2-0.2-0.2-0.3
		c-2.1-3.1-4.9-5.5-7.1-7.1c0.6,2.4,1.7,5.6,3.7,8.6c0.2,0.3,0.4,0.6,0.7,0.9L9,38h3.1c-0.1-0.5-0.2-1-0.3-1.5
		C11.8,36.2,11.8,35.9,11.7,35.6L11.7,35.6z M18.9,38c0.1-0.7,0.3-1.4,0.4-2.1c0.2-1.2,0.3-2.5,0.3-3.8c0-4.3-1.1-8.2-2.2-10.8
		c-1,2.6-2.1,6.5-2.1,10.8c0,1.3,0.1,2.6,0.3,3.8c0.1,0.7,0.2,1.4,0.4,2.1H18.9L18.9,38z M12,53.2h10.9l2.8-11.4h-5.3h-1.3h-3.4
		h-1.3H9.2L12,53.2L12,53.2z M40,53.2h4.6c0.5,0,0.9-0.2,1.2-0.5c0.3-0.3,0.5-0.8,0.5-1.2v-8h-8.1v8c0,0.5,0.2,0.9,0.5,1.2l0,0
		C39,53.1,39.5,53.2,40,53.2L40,53.2z M95.1,50.3c-0.6,0-1.2,0.3-1.7,0.7c-0.4,0.4-0.7,1-0.7,1.7v0.7h4.7v-0.7
		c0-0.6-0.3-1.2-0.7-1.7c0,0,0,0-0.1-0.1C96.2,50.5,95.7,50.3,95.1,50.3L95.1,50.3z M76.5,53.2h6v-9.8h-6V53.2L76.5,53.2z
		 M102.3,38.8C102.3,38.8,102.3,38.8,102.3,38.8c0.7-0.7,1-1.5,1-2.4v-3.1H56.4v3.1c0,0.9,0.4,1.7,1,2.3c0,0,0,0.1,0.1,0.1l0,0l0,0
		l0,0l0,0l0,0l0,0l0,0l0,0l0,0l0,0l0,0l0,0l0,0l0,0l0,0l0,0l0,0l0,0l0,0l0,0l0,0l0,0l0,0l0,0l0,0l0,0l0,0l0,0l0,0l0,0l0,0l0,0l0,0
		l0,0l0,0l0,0l0,0l0,0l0,0l0,0l0,0l0,0l0,0l0,0l0,0l0,0l0,0l0,0l0,0l0,0l0,0l0,0l0,0l0,0l0,0l0,0l0,0l0,0l0,0l0,0l0,0l0,0l0,0l0,0
		l0,0l0,0l0,0l0,0l0,0l0,0l0,0l0,0l0,0l0,0l0,0l0,0l0,0l0,0l0,0l0,0l0,0h0l0,0l0,0l0,0l0,0l0,0l0,0l0,0l0,0l0,0l0,0l0,0l0,0l0,0l0,0
		l0,0l0,0l0,0l0,0l0,0l0,0l0,0l0,0l0,0l0,0l0,0l0,0l0,0l0,0l0,0l0,0l0,0l0,0l0,0l0,0l0,0l0,0l0,0l0,0l0,0l0,0h0l0,0h0l0,0h14.9h9.7
		H100l0,0h0l0,0h0l0,0l0,0l0,0l0,0l0,0l0,0l0,0l0,0l0,0l0,0l0,0l0,0l0,0l0,0l0,0l0,0l0,0l0,0l0,0l0,0l0,0l0,0l0,0l0,0l0,0l0,0l0,0
		l0,0l0,0l0,0l0,0l0,0l0,0l0,0l0,0l0,0l0,0l0,0l0,0l0,0h0l0,0l0,0l0,0l0,0l0,0l0,0l0,0l0,0l0,0l0,0l0,0l0,0l0,0l0,0l0,0l0,0l0,0l0,0
		l0,0l0,0l0,0l0,0l0,0l0,0l0,0l0,0l0,0l0,0l0,0l0,0l0,0l0,0l0,0l0,0l0,0l0,0l0,0l0,0l0,0l0,0l0,0l0,0l0,0l0,0l0,0l0,0l0,0l0,0l0,0
		l0,0l0,0l0,0l0,0l0,0l0,0l0,0l0,0l0,0l0,0l0,0l0,0l0,0l0,0l0,0l0,0l0,0l0,0l0,0l0,0l0,0l0,0l0,0L102.3,38.8L102.3,38.8L102.3,38.8
		L102.3,38.8L102.3,38.8L102.3,38.8L102.3,38.8L102.3,38.8L102.3,38.8L102.3,38.8z M103.3,29.6V7.1c0-0.9-0.4-1.7-1-2.3l0,0l0,0
		c-0.6-0.6-1.4-1-2.3-1H59.7c-0.9,0-1.7,0.4-2.3,1l0,0c-0.6,0.6-1,1.4-1,2.3v22.5H103.3L103.3,29.6z M67.2,104H104V91.2H67.2V104
		L67.2,104z M67.2,87.1H104V74.8H67.2V87.1L67.2,87.1z M67.2,70.6H104V57.9H67.2v9.9V70.6L67.2,70.6z M85.6,62.5
		c1,0,1.9,0.8,1.9,1.9c0,1-0.8,1.9-1.9,1.9h0c-1,0-1.9-0.8-1.9-1.9C83.7,63.4,84.5,62.5,85.6,62.5L85.6,62.5L85.6,62.5z M33.6,65.9
		c1,0,1.9,0.8,1.9,1.9c0,1-0.8,1.9-1.9,1.9h0c-1,0-1.9-0.8-1.9-1.9C31.7,66.8,32.5,65.9,33.6,65.9L33.6,65.9L33.6,65.9z M85.6,79
		c1,0,1.9,0.8,1.9,1.9c0,1-0.8,1.9-1.9,1.9h0c-1,0-1.9-0.8-1.9-1.9C83.7,79.9,84.5,79,85.6,79L85.6,79L85.6,79z M85.6,95.5
		c1,0,1.9,0.8,1.9,1.9c0,1-0.8,1.9-1.9,1.9h0c-1,0-1.9-0.8-1.9-1.9C83.7,96.3,84.5,95.5,85.6,95.5L85.6,95.5L85.6,95.5z"/>
</g>
</svg>
