<?xml version="1.0" encoding="utf-8"?>
<!-- Generator: Adobe Illustrator 22.1.0, SVG Export Plug-In . SVG Version: 6.00 Build 0)  -->
<svg version="1.1" id="Layer_1" xmlns="http://www.w3.org/2000/svg" xmlns:xlink="http://www.w3.org/1999/xlink" x="0px" y="0px"
	 viewBox="0 0 107.7 107.7" style="enable-background:new 0 0 107.7 107.7;" xml:space="preserve">
<style type="text/css">
	.st0{fill:#30374A;}
</style>
<g>
	<path class="st0" d="M94.2,28.6c1,0,1.9,0.8,1.9,1.9c0,1-0.8,1.9-1.9,1.9H38c-1,0-1.9-0.8-1.9-1.9c0-1,0.8-1.9,1.9-1.9H94.2
		L94.2,28.6z M59.1,9.6c1,0,1.9,0.8,1.9,1.9c0,1-0.8,1.9-1.9,1.9h0c-1,0-1.9-0.8-1.9-1.9C57.2,10.4,58,9.6,59.1,9.6L59.1,9.6
		L59.1,9.6z M39.3,9.6c1,0,1.9,0.8,1.9,1.9c0,1-0.8,1.9-1.9,1.9h0c-1,0-1.9-0.8-1.9-1.9C37.4,10.4,38.2,9.6,39.3,9.6L39.3,9.6
		L39.3,9.6z M49.2,9.6c1,0,1.9,0.8,1.9,1.9c0,1-0.8,1.9-1.9,1.9h0c-1,0-1.9-0.8-1.9-1.9C47.3,10.4,48.1,9.6,49.2,9.6L49.2,9.6
		L49.2,9.6z M67.2,0h38.6c1,0,1.9,0.8,1.9,1.9v19.7v84.3c0,1-0.8,1.9-1.9,1.9h-56H15.3c-2.8,0-5.4-1.2-7.3-3c-1.9-1.9-3-4.4-3-7.3
		v-8.6H1.9c-1,0-1.9-0.8-1.9-1.9v-7.2c0-1,0.8-1.9,1.9-1.9h22.6V21.6V1.9c0-1,0.8-1.9,1.9-1.9H67.2L67.2,0z M104,3.8H67.2h-39v15.9
		H104V3.8L104,3.8z M28.2,23.4v54.4h12.7c-0.6-1.4-1.2-2.8-1.6-4.2c-0.7-2.5-1.1-5.1-1.1-7.7c0-6.2,2-11.9,5.5-16.6
		c3.5-4.8,8.5-8.3,14.3-10.1c1-0.3,2,0.3,2.3,1.3c0.3,1-0.3,2-1.3,2.3c-5,1.5-9.3,4.6-12.4,8.7c-2.3,3.2-3.9,6.9-4.5,11
		c0.4,0.2,0.7,0.5,1,0.8l0,0l1.3,1.3c1.1,1.1,2.5,1.6,4,1.6c1.5,0,2.9-0.5,4-1.6l1.3-1.3c1-1,2.2-1.4,3.5-1.4c1.3,0,2.6,0.5,3.5,1.4
		l0,0l1.3,1.3c1.1,1.1,2.5,1.6,4,1.6c1.5,0,2.9-0.5,4-1.6l1.3-1.3c1-1,2.2-1.4,3.5-1.4c1.3,0,2.6,0.5,3.5,1.4l1.3,1.3
		c1.1,1.1,2.5,1.6,4,1.6c1.4,0,2.9-0.5,3.9-1.5c0,0,0.1-0.1,0.1-0.1l1.3-1.3l0,0l0,0c0.3-0.3,0.6-0.5,0.9-0.7
		c-0.6-4.1-2.2-7.8-4.5-11c-3-4.1-7.4-7.2-12.4-8.7c-1-0.3-1.6-1.4-1.3-2.3c0.3-1,1.4-1.6,2.3-1.3C80,41,85,44.6,88.5,49.3
		c3,4.1,4.9,8.9,5.4,14.3v0l0,0l0,0l0,0c0.1,0.7,0.1,1.5,0.1,2.3c0,7.7-3.1,14.7-8.2,19.7c-5,5-12,8.2-19.7,8.2
		c-1.4,0-2.9-0.1-4.3-0.3c-0.6-0.1-1.1-0.2-1.7-0.3v4.3l0,0.1v0l0,0.1l0,0l0,0l0,0.1l0,0l0,0.1l0,0l0,0l0,0.1l0,0l0,0l0,0.1l0,0.1
		l0,0l0,0.1l0,0l0,0l0,0.1l0,0l0,0.1l0,0l0,0.1l0,0.1l0,0l0,0.1l0,0l0,0.1l0,0l0,0.1l0,0l0,0.1l0,0.1l0,0l0,0l0,0.1l0,0.1l0,0l0,0.1
		l0,0l0,0l0,0.1l0,0l0,0.1l0,0l0,0l0,0.1l0,0l0,0c0,0.1,0,0.1-0.1,0.2l0,0l0,0.1l0,0l0,0.1l0,0l0,0.1l0,0l0,0.1l0,0l0,0.1l0,0l0,0.1
		l0,0l0,0.1l0,0l0,0.1l0,0l0,0.1l0,0.1l0,0l0,0.1l0,0l0,0l0,0.1l0,0l0,0.1l0,0l0,0.1l0,0l0,0.1l0,0.1l0,0l0,0l0,0l0,0.1l0,0l0,0.1
		l0,0l0,0l0,0.1l0,0l-0.1,0.1l0,0l-0.1,0.1l0,0l0,0.1l0,0l0,0.1l0,0l0,0.1l0,0l0,0l0,0l0,0.1l0,0.1l0,0l0,0l-0.1,0.2l0,0l-0.1,0.1
		l0,0l0,0.1l0,0c0,0.1-0.1,0.1-0.1,0.2l0,0l0,0.1l0,0l0,0l0,0.1l-0.1,0.1l0,0l-0.1,0.1H104V23.4H28.2L28.2,23.4z M42,67.4
		c0.1,1.8,0.4,3.5,0.9,5.2c0.5,1.9,1.3,3.6,2.2,5.3h18.1c1,0,1.9,0.8,1.9,1.9v7.2c0,1-0.8,1.9-1.9,1.9h-3.1v0.5
		c0.7,0.2,1.5,0.3,2.3,0.5c1.2,0.2,2.4,0.3,3.7,0.3c6.7,0,12.7-2.7,17-7.1c4-4,6.6-9.5,7-15.5c-1.8,1.6-4.1,2.5-6.4,2.5
		c-2.4,0-4.9-0.9-6.6-2.7L75.8,66c-0.2-0.2-0.5-0.3-0.9-0.3c-0.3,0-0.7,0.1-0.9,0.3l-1.3,1.3c-1.8,1.8-4.2,2.7-6.6,2.7
		c-2.4,0-4.9-0.9-6.6-2.7L58.2,66l0,0l0,0c-0.2-0.2-0.5-0.3-0.9-0.3c-0.3,0-0.7,0.1-0.9,0.3l-1.3,1.3c-1.8,1.8-4.2,2.7-6.6,2.7
		C46.2,69.9,43.8,69.1,42,67.4L42,67.4z M75.5,13.4c-1,0-1.9-0.8-1.9-1.9c0-1,0.8-1.9,1.9-1.9H94c1,0,1.9,0.8,1.9,1.9
		c0,1-0.8,1.9-1.9,1.9H75.5L75.5,13.4z M6.4,85C6.5,85,6.7,85,6.9,85h51.4c0.2,0,0.4,0,0.5,0.1h2.6v-3.4h-35H3.8V85H6.4L6.4,85z
		 M56.4,97.4v-8.6H8.8v8.6c0,1.8,0.7,3.4,1.9,4.6c1.2,1.2,2.8,1.9,4.6,1.9h34.5c1.8,0,3.4-0.7,4.6-1.9
		C55.6,100.9,56.4,99.2,56.4,97.4L56.4,97.4z M66.1,38.1c1,0,1.9,0.8,1.9,1.9c0,1-0.8,1.9-1.9,1.9h0c-1,0-1.9-0.8-1.9-1.9
		C64.2,38.9,65,38.1,66.1,38.1L66.1,38.1L66.1,38.1z"/>
</g>
</svg>
