<?xml version="1.0" encoding="utf-8"?>
<!-- Generator: Adobe Illustrator 22.1.0, SVG Export Plug-In . SVG Version: 6.00 Build 0)  -->
<svg version="1.1" id="Layer_1" xmlns="http://www.w3.org/2000/svg" xmlns:xlink="http://www.w3.org/1999/xlink" x="0px" y="0px"
	 viewBox="0 0 107.7 107.7" style="enable-background:new 0 0 107.7 107.7;" xml:space="preserve">
<style type="text/css">
	.st0{fill:#CA3593;}
</style>
<g>
	<path class="st0" d="M67.4,80.5c1,0,1.9,0.8,1.9,1.9s-0.8,1.9-1.9,1.9h0c-1,0-1.9-0.8-1.9-1.9S66.4,80.5,67.4,80.5L67.4,80.5
		L67.4,80.5z M75.6,62.5c1,0,1.9,0.8,1.9,1.9c0,1-0.8,1.9-1.9,1.9h0c-1,0-1.9-0.8-1.9-1.9C73.7,63.3,74.5,62.5,75.6,62.5L75.6,62.5
		L75.6,62.5z M59.3,62.5c1,0,1.9,0.8,1.9,1.9c0,1-0.8,1.9-1.9,1.9h0c-1,0-1.9-0.8-1.9-1.9C57.4,63.3,58.2,62.5,59.3,62.5L59.3,62.5
		L59.3,62.5z M75.6,48.7c1,0,1.9,0.8,1.9,1.9c0,1-0.8,1.9-1.9,1.9h0c-1,0-1.9-0.8-1.9-1.9C73.7,49.6,74.5,48.7,75.6,48.7L75.6,48.7
		L75.6,48.7z M59.3,48.7c1,0,1.9,0.8,1.9,1.9c0,1-0.8,1.9-1.9,1.9h0c-1,0-1.9-0.8-1.9-1.9C57.4,49.6,58.2,48.7,59.3,48.7L59.3,48.7
		L59.3,48.7z M49.4,106.6c-0.4,0.9-1.6,1.3-2.5,0.9c-0.9-0.4-1.3-1.6-0.9-2.5l4.7-9.9c-4.1-0.8-7.7-2.8-10.5-5.6
		c-3.7-3.7-5.9-8.7-5.9-14.2v-4.7c-1.5-0.6-2.8-1.4-3.9-2.5c-2-2-3.2-4.8-3.2-7.8c0-3.1,1.2-5.8,3.3-7.9c2-2,4.8-3.3,7.9-3.3
		c0.4,0,0.8,0,1.3,0.1v-0.9c0-4.7,1.9-9,5-12.1c3.1-3.1,7.4-5,12.1-5h21.6c4.7,0,9,1.9,12.1,5c3.1,3.1,5,7.4,5,12.1v0.9
		c0.4,0,0.8-0.1,1.3-0.1c3.1,0,5.8,1.2,7.9,3.3c2,2,3.3,4.8,3.3,7.9c0,3.1-1.2,5.8-3.2,7.8c-1.1,1.1-2.4,2-3.9,2.5v4.7
		c0,5.5-2.3,10.6-5.9,14.2c-2.8,2.8-6.4,4.8-10.5,5.6l4.7,9.9c0.4,0.9,0,2.1-0.9,2.5c-0.9,0.4-2.1,0-2.5-0.9l-5.3-11.1H54.7
		L49.4,106.6L49.4,106.6z M38,71.4v3.9c0,4.5,1.8,8.6,4.8,11.6c3,3,7.1,4.8,11.6,4.8h25.9c4.5,0,8.6-1.8,11.6-4.8
		c3-3,4.8-7.1,4.8-11.6v-3.9l-0.2,0c-0.3,0-0.6,0-0.9,0c-0.2,0-0.5-0.1-0.9-0.1c-1-0.2-1.7-1.1-1.6-2.1c0.2-1,1.1-1.7,2.1-1.6
		c0.1,0,0.3,0,0.6,0.1c0.2,0,0.4,0,0.6,0c2,0,3.9-0.9,5.2-2.2c1.3-1.3,2.1-3.1,2.1-5.2c0-2-0.8-3.9-2.2-5.2
		c-1.3-1.3-3.2-2.2-5.2-2.2c-0.9,0-1.7,0.2-2.5,0.4l0,0l0,0l0,0c-1,0.4-1.9,1-2.7,1.7c-1.3,1.3-2.1,3.1-2.2,5.1v15.1
		c0,2.4-1,4.7-2.6,6.3c-1.6,1.6-3.8,2.6-6.3,2.6H75c-1,0-1.9-0.8-1.9-1.9c0-1,0.8-1.9,1.9-1.9h5.4c1.4,0,2.7-0.6,3.6-1.5
		c0.9-0.9,1.5-2.2,1.5-3.6v-15l0,0l0-0.1v-0.5c0-0.1,0-0.3,0-0.4c0.2-2.7,1.4-5.1,3.2-6.9c0.8-0.8,1.8-1.5,2.8-2.1v-2
		c0-3.7-1.5-7-3.9-9.4c-2.4-2.4-5.8-3.9-9.4-3.9H56.6c-3.7,0-7,1.5-9.4,3.9c-2.4,2.4-3.9,5.8-3.9,9.4v2c1.1,0.5,2,1.2,2.8,2.1
		c1.8,1.8,3,4.2,3.2,6.9c0,0.1,0,0.2,0,0.4v0.5l0,0.1l0,0v15c0,1.4,0.6,2.7,1.5,3.6c0.9,0.9,2.2,1.5,3.6,1.5h5.4
		c1,0,1.9,0.8,1.9,1.9c0,1-0.8,1.9-1.9,1.9h-5.4c-2.4,0-4.7-1-6.3-2.6c-1.6-1.6-2.6-3.8-2.6-6.3V60.2c0-2-0.8-3.8-2.2-5.1
		c-0.7-0.7-1.7-1.3-2.7-1.7l0,0l0,0l0,0c-0.8-0.3-1.6-0.4-2.5-0.4c-2,0-3.9,0.8-5.2,2.2c-1.3,1.3-2.2,3.2-2.2,5.2
		c0,2,0.8,3.8,2.1,5.2c1.3,1.3,3.2,2.2,5.2,2.2c0.1,0,0.3,0,0.6,0c0.2,0,0.4,0,0.6-0.1c1-0.2,2,0.5,2.1,1.6c0.2,1-0.5,2-1.6,2.1
		c-0.3,0.1-0.6,0.1-0.9,0.1c-0.2,0-0.5,0-0.9,0L38,71.4L38,71.4z M9.4,0h17.3c0.9,0,1.6,0.6,1.8,1.4l7.5,25c0.3,1-0.3,2-1.3,2.3
		c-0.2,0.1-0.4,0.1-0.5,0.1v0H20V104h6.2c1,0,1.9,0.8,1.9,1.9c0,1-0.8,1.9-1.9,1.9h-8.1H10c-1,0-1.9-0.8-1.9-1.9
		c0-1,0.8-1.9,1.9-1.9h6.2V28.8H8.8v8.4c0,1-0.8,1.9-1.9,1.9c-1,0-1.9-0.8-1.9-1.9v-8.4H1.9c-1,0-1.9-0.8-1.9-1.9
		c0-0.2,0-0.4,0.1-0.6L7.6,1.3C7.9,0.5,8.6,0,9.4,0L9.4,0L9.4,0z M25.3,3.8H10.8L4.4,25H7h11.1h13.7L25.3,3.8L25.3,3.8z M0.1,26.3
		c0.3-0.7,1-1.2,1.8-1.2L0.1,26.3L0.1,26.3z M7,42c1,0,1.9,0.8,1.9,1.9c0,1-0.8,1.9-1.9,1.9h0c-1,0-1.9-0.8-1.9-1.9
		C5.1,42.8,5.9,42,7,42L7,42L7,42z"/>
</g>
</svg>
