<?xml version="1.0" encoding="utf-8"?>
<!-- Generator: Adobe Illustrator 22.1.0, SVG Export Plug-In . SVG Version: 6.00 Build 0)  -->
<svg version="1.1" id="Layer_1" xmlns="http://www.w3.org/2000/svg" xmlns:xlink="http://www.w3.org/1999/xlink" x="0px" y="0px"
	 viewBox="0 0 20.8 18.5" style="enable-background:new 0 0 20.8 18.5;" xml:space="preserve">
<style type="text/css">
	.st0{fill:#30374A;}
</style>
<g>
	<path class="st0" d="M17.7,13.1c-1,1-2.1,2-3.2,2.8l0,0c-1.1,0.9-2.3,1.6-3.5,2.4c-0.2,0.1-0.4,0.2-0.6,0.1c-0.2,0-0.4,0-0.6-0.2
		c-1.2-0.7-2.3-1.5-3.5-2.4l0,0c-1.1-0.9-2.2-1.8-3.2-2.8l0,0c-1.5-1.5-2.7-3.7-3-5.8c-0.2-1-0.2-2,0.1-2.9c0.2-1,0.7-1.8,1.4-2.6
		C2.5,1,3.7,0.4,5.3,0.1C6.4-0.1,7.6,0,8.7,0.4c0.6,0.2,1.2,0.6,1.8,1c0.5-0.4,1.1-0.8,1.8-1c1.1-0.4,2.3-0.5,3.4-0.3
		c1.6,0.3,2.9,0.9,3.7,1.8c0.7,0.7,1.2,1.6,1.4,2.6c0.2,0.9,0.2,1.9,0.1,2.9C20.4,9.4,19.2,11.6,17.7,13.1L17.7,13.1z M13.3,14.4
		c1-0.8,2-1.7,3-2.6l0,0l0,0c1.2-1.3,2.2-3,2.5-4.7c0.1-0.7,0.1-1.5,0-2.1c-0.1-0.6-0.4-1.2-0.9-1.6c-0.6-0.6-1.4-1-2.6-1.2
		c-0.7-0.1-1.6,0-2.3,0.2c-0.7,0.2-1.3,0.6-1.6,1.2c-0.1,0.1-0.1,0.2-0.3,0.3C10.5,4,9.9,3.9,9.6,3.5C9.2,2.9,8.6,2.5,8,2.3
		C7.2,2,6.4,1.9,5.6,2C4.4,2.3,3.6,2.7,3,3.2c-0.5,0.5-0.7,1-0.9,1.6C2,5.5,2,6.2,2.1,7c0.3,1.7,1.2,3.5,2.5,4.7l0,0
		c0.9,1,1.9,1.8,3,2.6l0,0l0,0c0.9,0.7,1.9,1.4,2.9,2C11.4,15.7,12.4,15.1,13.3,14.4L13.3,14.4L13.3,14.4z M4.5,11.7L4.5,11.7
		L4.5,11.7L4.5,11.7z"/>
</g>
</svg>
