<?xml version="1.0" encoding="utf-8"?>
<!-- Generator: Adobe Illustrator 22.1.0, SVG Export Plug-In . SVG Version: 6.00 Build 0)  -->
<svg version="1.1" id="Layer_1" xmlns="http://www.w3.org/2000/svg" xmlns:xlink="http://www.w3.org/1999/xlink" x="0px" y="0px"
	 viewBox="0 0 20.8 18.5" style="enable-background:new 0 0 20.8 18.5;" xml:space="preserve">
<style type="text/css">
	.st0{fill:#ED1C24;}
</style>
<g>
	<path class="st0" d="M17.7,13.1c-1,1-2.1,2-3.2,2.8l0,0c-1.1,0.9-2.3,1.6-3.5,2.4c-0.2,0.1-0.4,0.2-0.6,0.1c-0.2,0-0.4,0-0.6-0.2
		c-1.2-0.7-2.3-1.5-3.5-2.4l0,0c-1.1-0.9-2.2-1.8-3.2-2.8l0,0c-1.5-1.5-2.7-3.7-3-5.8c-0.2-1-0.2-2,0.1-2.9c0.2-1,0.7-1.8,1.4-2.6
		C2.5,1,3.7,0.4,5.3,0.1C6.4-0.1,7.6,0,8.7,0.4c0.6,0.2,1.2,0.6,1.8,1c0.5-0.4,1.1-0.8,1.8-1c1.1-0.4,2.3-0.5,3.4-0.3
		c1.6,0.3,2.9,0.9,3.7,1.8c0.7,0.7,1.2,1.6,1.4,2.6c0.2,0.9,0.2,1.9,0.1,2.9C20.4,9.4,19.2,11.6,17.7,13.1L17.7,13.1z"/>
</g>
</svg>
