<?xml version="1.0" encoding="utf-8"?>
<!-- Generator: Adobe Illustrator 22.1.0, SVG Export Plug-In . SVG Version: 6.00 Build 0)  -->
<svg version="1.1" id="Layer_1" xmlns="http://www.w3.org/2000/svg" xmlns:xlink="http://www.w3.org/1999/xlink" x="0px" y="0px"
	 viewBox="0 0 661.1 611.4" style="enable-background:new 0 0 661.1 611.4;" xml:space="preserve">
<style type="text/css">
	.st0{fill:#CA3593;}
</style>
<g>
	<path class="st0" d="M338.5,134c-3,1.5-6.9,4.7-10.9,8.1c-7.6,6.5-15.7,13.4-21.3,10.4c-1.2-0.6-2.2-1.7-2.8-3.3
		c-0.5-1.3-0.6-2.9-0.2-4.8c0,0,0-0.1,0-0.1c1.6-8.9,9-15.7,12-18.2c-0.3-0.2-0.6-0.4-0.9-0.6c-1-0.7-1.9-1.5-2.8-2.3
		c-7.2,5.8-12.4,11.9-17,17.3c-7.3,8.6-12.9,15.2-21.9,15.1c-8.2-0.1-6.5-8.7-2.9-17.2c-6.7,3.1-24.3,10.4-31.2,3.5
		c-0.4-0.5-0.8-0.9-1.1-1.4c-1.4-2.5-0.7-5.3,1.9-8.4c2.3-2.8,6.3-6,11.6-9.4c10.9-6.9,27.9-15,49.4-23.9
		c24-20.2,48.4-24.6,70.9-20.9c29.3,4.8,55.2,23.2,72.6,38.1c8.6,7.3,40.7-6.9,81.3-30.2c41.1-23.5,90.7-56.3,134-85.6
		c0.5-0.3,1.2-0.2,1.5,0.3c0.3,0.5,0.2,1.2-0.3,1.5c-43.4,29.4-93.1,62.2-134.1,85.7c-41.5,23.7-74.4,38-83.8,30
		c-17.2-14.7-42.8-32.9-71.6-37.6c-28.7-4.7-60.5,4-90.5,43.2c-0.4,0.6-4.3,6.6-7.5,13.1c0,0.3-0.1,0.5-0.3,0.7
		c-3.8,8-6.4,16.5,0,16.6c8,0.1,13.3-6.1,20.3-14.3c4.6-5.4,9.9-11.6,17.1-17.5c-1.4-1.7-2.5-3.5-3.3-5.3c-1.5-3.5-1.9-7.2-1.1-10.7
		c0.4-1.8,1.2-3.6,2.4-5.2c2-2.8,11.2-0.3,23.7,3.1c20,5.5,49.1,13.5,68.4,6.5c0.6-0.2,1.2,0.1,1.4,0.6c0.2,0.6-0.1,1.2-0.6,1.4
		c-20,7.3-49.4-0.8-69.7-6.4c-11.6-3.2-20.2-5.6-21.4-3.9c-1,1.4-1.7,2.9-2.1,4.5c-0.7,3-0.4,6.3,1,9.4c0.8,2,2.1,3.8,3.6,5.5
		c0,0,0.1,0.1,0.1,0.1c0.9,1,2,1.9,3.1,2.7c0.6,0.5,1.3,0.9,2,1.3c0,0,0.1,0,0.1,0.1c1.9,1.1,4.1,2,6.5,2.5
		c37.8,9.2,57.9,25.9,74.6,39.8c26.3,21.8,43.9,36.4,109.9,1.3c60.1-31.9,140.1-64.4,140.3-64.5l0,0l10.5-4.4c0.5-0.2,1.2,0,1.4,0.6
		c0.2,0.5,0,1.2-0.6,1.4l-10.5,4.4l0,0c-0.2,0.1-80.2,32.5-140.1,64.4c-67.3,35.8-85.3,20.9-112.3-1.5
		C383.3,157.4,366.6,143.5,338.5,134L338.5,134z M354.6,401.2c0.5,0.3,0.7,0.9,0.4,1.5c-0.3,0.5-0.9,0.7-1.5,0.4
		c-18-9.9-48-6.2-68.6-3.8c-12.8,1.6-22.2,2.7-23.9-0.4c-0.9-1.8-1.4-3.6-1.6-5.5c-0.3-3.6,0.6-7.2,2.6-10.5
		c1.1-1.7,2.4-3.3,4.1-4.8c-6.3-6.9-10.6-13.8-14.4-19.8c-5.7-9.1-10-16.1-17.9-17.2c-6.4-0.9-5.1,7.9-2.5,16.4
		c0.2,0.2,0.2,0.5,0.2,0.7c2.2,7,5.2,13.5,5.5,14.1c23.8,43.1,54.1,56.5,83.1,56.1c29.1-0.4,57.2-14.6,76.4-26.6
		c24.4-15.2,159.6,110.5,237,182.5c10.1,9.4,19.3,17.9,27.1,25.1c0.4,0.4,0.5,1.1,0.1,1.5c-0.4,0.4-1.1,0.5-1.5,0.1
		c-7.7-7.1-16.9-15.6-27.1-25.1c-77-71.6-211.4-196.6-234.4-182.3c-19.4,12.1-47.8,26.5-77.5,26.9c-22.8,0.3-46.3-7.6-67-31.2
		c-19.9-12-35.5-22.5-45.3-31c-4.8-4.2-8.2-7.9-10.1-11c-2.1-3.5-2.3-6.3-0.6-8.6c0.3-0.4,0.8-0.9,1.3-1.2c7.8-5.8,24.1,4,30.3,8.1
		c-2.3-8.9-2.7-17.7,5.4-16.6c8.9,1.2,13.5,8.5,19.4,18.1c3.7,6,8,12.9,14.2,19.6c1-0.7,2-1.3,3.1-1.9c0.3-0.2,0.6-0.3,1-0.5
		c-2.6-2.9-8.9-10.8-9.2-19.9c-0.1-2,0.3-3.5,1-4.7c0.8-1.5,2-2.4,3.3-2.9c5.9-2.1,12.9,5.9,19.5,13.5c3.4,4,6.8,7.8,9.5,9.7
		c29.2-5.2,47.8-16.4,63.6-26c30-18.1,50-30.2,111.3,15.2c54.5,40.4,128.8,84.3,129,84.5c0,0,0.1,0,0.1,0l60.5,36.7
		c0.5,0.3,0.7,1,0.4,1.5c-0.3,0.5-1,0.7-1.5,0.4l-60.5-36.7l-0.1,0c-0.2-0.1-74.6-44.1-129.2-84.6c-60.1-44.6-79.6-32.8-108.9-15.1
		c-18.6,11.2-41,24.8-79.7,28.3c-2.5,0.2-4.7,0.8-6.8,1.6c0,0-0.1,0-0.1,0c-0.8,0.3-1.5,0.6-2.2,1c-1.3,0.6-2.4,1.4-3.5,2.2
		c0,0,0,0-0.1,0.1c-1.8,1.4-3.3,3.1-4.4,4.9c-1.8,2.8-2.6,6-2.3,9.1c0.1,1.6,0.6,3.2,1.4,4.7c0.9,1.8,9.7,0.7,21.7-0.7
		C305.7,394.7,336,391,354.6,401.2L354.6,401.2z M274.1,373.6c2.1-0.7,4.4-1.3,6.8-1.5c4.3-0.4,8.4-0.9,12.3-1.5
		c-2.6-2.2-5.4-5.4-8.3-8.7c-6.1-7-12.6-14.5-17.2-12.8c-0.8,0.3-1.6,0.9-2.1,1.8c-0.5,0.9-0.8,2.1-0.7,3.7
		C265.2,363.7,272.2,371.6,274.1,373.6L274.1,373.6z M249.1,394.3c-4.8-6.1-9.4-13-13.8-21l0,0c0,0,0,0,0-0.1c0,0-3.2-6.8-5.5-14.4
		c-2.3-1.7-22-15.5-29.9-9.6c-0.3,0.3-0.6,0.5-0.9,0.8c-1.1,1.5-0.8,3.5,0.7,6.2c1.8,2.9,5,6.5,9.7,10.5
		C218.2,374.4,231.8,383.8,249.1,394.3L249.1,394.3z M659.5,192.8c0.5-0.3,1.2-0.2,1.5,0.4c0.3,0.5,0.2,1.2-0.4,1.5l-9.3,5.7
		c-117.9,72.7-196.2,120.9-307.8,79.6c-9.9-3.7-18.4-7.5-25.8-11.3c-19.3,9.5-44.9,12-74.4-0.7c-31.3-13.5-65.3-15.3-104.5,4.2
		c-39,19.4-83,59.8-134.3,130.5l13.3-1c0.6,0,1.1,0.4,1.1,1s-0.4,1.1-1,1.1L2.5,405c-0.1,0-0.3,0-0.5,0c-0.5,0-1-0.5-1-1l-1-16.2
		c0-0.6,0.4-1.1,1-1.1c0.6,0,1.1,0.4,1.1,1L3,401c51.4-70.8,95.7-111.3,134.9-130.8c39.8-19.8,74.4-18,106.3-4.2
		c28.1,12.1,52.5,10.1,71.2,1.4c-23.8-13-34.9-26.8-38.1-38.9c-2-7.5-1-14.4,1.7-20.1c2.8-5.7,7.4-10.2,12.8-13
		c7.9-4.1,17.4-4.4,24.8,0.8c0.8-0.8,1.7-1.5,2.6-2.2c4.5-3.1,9.8-3.9,14.8-3.1c12.7,2,19.7,9.3,21.7,18.9c1.5,7,0.3,15.3-3.3,23.5
		c-3.5,8.2-9.3,16.4-17.1,23.4c-4.4,4-9.5,7.7-15.2,10.7c7,3.6,15,7.1,24.2,10.5c110.7,41,188.6-7,306-79.4
		C656.5,194.7,651.1,198,659.5,192.8L659.5,192.8z M279.2,227.9c3.2,11.9,14.3,25.5,38.4,38.3c6-3.1,11.4-6.9,16.1-11.1
		c7.5-6.8,13.1-14.8,16.5-22.7c3.4-7.8,4.5-15.6,3.1-22.2c-1.8-8.8-8.2-15.4-19.9-17.3c-4.5-0.7-9.2,0-13.2,2.7
		c-0.7,0.5-1.4,1.1-2.1,1.7c2.9,2.5,5.7,8.3,6.7,13.7c0.4,2.4,0.5,4.7,0.2,6.6c-0.4,2.1-1.3,3.8-3,4.8c-1.3,0.8-2.9,1.1-4.9,0.8
		c-0.3,0-0.6-0.1-0.8-0.2c-2-0.6-3.9-2.4-5.2-5c-1.2-2.4-1.8-5.5-1.4-8.8c0.1-0.8,0.3-1.6,0.5-2.4c1.2-3.9,2.8-7,4.7-9.4
		c-6.7-4.6-15.2-4.2-22.4-0.5c-5,2.6-9.2,6.8-11.8,12C278.2,214.5,277.4,220.9,279.2,227.9L279.2,227.9z M316.8,199L316.8,199
		c-1.9,2.2-3.4,5-4.4,8.6c-0.2,0.7-0.4,1.4-0.4,2.1c-0.4,2.8,0.2,5.5,1.2,7.6c1,2,2.4,3.4,3.9,3.9c0.2,0.1,0.3,0.1,0.5,0.1
		c1.5,0.2,2.7,0,3.5-0.5c1.1-0.7,1.7-1.9,2-3.4c0.3-1.7,0.2-3.7-0.2-5.8C321.8,206.5,319.3,201.2,316.8,199L316.8,199z M317.3,127.3
		c-2.2,1.7-10.2,8.5-11.9,17.4c0,0,0,0.1,0,0.1c-0.3,1.6-0.2,2.8,0.2,3.7c0.4,1,1,1.7,1.8,2.1c4.2,2.3,11.8-4.1,18.9-10.2
		c3.4-2.9,6.6-5.6,9.5-7.4c-3.8-1.2-7.7-2.3-11.9-3.3C321.4,129.2,319.2,128.4,317.3,127.3L317.3,127.3z M271.3,135.3
		c3.4-7.1,7.5-13.4,7.6-13.4c0,0,0,0,0-0.1l0,0c5.5-7.2,11.1-13.4,16.8-18.7c-18.7,7.9-33.5,15.1-43.4,21.3c-5.2,3.3-9,6.3-11.1,8.9
		c-1.9,2.4-2.5,4.4-1.6,6c0.2,0.3,0.4,0.6,0.7,1C247.2,147.4,268.8,136.6,271.3,135.3L271.3,135.3z"/>
</g>
</svg>
