<?xml version="1.0" encoding="utf-8"?>
<!-- Generator: Adobe Illustrator 22.1.0, SVG Export Plug-In . SVG Version: 6.00 Build 0)  -->
<svg version="1.1" id="Layer_1" xmlns="http://www.w3.org/2000/svg" xmlns:xlink="http://www.w3.org/1999/xlink" x="0px" y="0px"
	 viewBox="0 0 10.5 18" style="enable-background:new 0 0 10.5 18;" xml:space="preserve">
<style type="text/css">
	.st0{fill:#30374A;}
</style>
<g>
	<path class="st0" d="M4.9,4.1c0.5,0,0.8-0.4,0.8-0.8c0-0.8,0.7-1.5,1.5-1.5h2.4c0.5,0,0.8-0.4,0.8-0.8c0-0.5-0.4-0.8-0.8-0.8H7.3
		C5.5,0,4,1.4,4,3.2C4,3.7,4.4,4.1,4.9,4.1L4.9,4.1z"/>
	<path class="st0" d="M9.5,6.7H0.8C0.4,6.7,0,7.1,0,7.6C0,8,0.4,8.4,0.8,8.4h3.2v8.8c0,0.5,0.4,0.8,0.8,0.8c0.5,0,0.8-0.4,0.8-0.8
		V8.4h3.7c0.5,0,0.8-0.4,0.8-0.8C10.3,7.1,9.9,6.7,9.5,6.7L9.5,6.7z"/>
</g>
</svg>
