<?xml version="1.0" encoding="utf-8"?>
<!-- Generator: Adobe Illustrator 22.1.0, SVG Export Plug-In . SVG Version: 6.00 Build 0)  -->
<svg version="1.1" id="Layer_1" xmlns="http://www.w3.org/2000/svg" xmlns:xlink="http://www.w3.org/1999/xlink" x="0px" y="0px"
	 viewBox="0 0 18.4 18.4" style="enable-background:new 0 0 18.4 18.4;" xml:space="preserve">
<style type="text/css">
	.st0{fill:#30374A;}
</style>
<g>
	<path class="st0" d="M13.3,0H5.1C2.3,0,0,2.3,0,5.1v8.3c0,2.8,2.3,5.1,5.1,5.1h8.3c2.8,0,5.1-2.3,5.1-5.1V5.1
		C18.4,2.3,16.1,0,13.3,0L13.3,0z M16.8,13.3c0,1.9-1.5,3.4-3.4,3.4H5.1c-1.9,0-3.4-1.5-3.4-3.4V5.1c0-1.9,1.5-3.4,3.4-3.4h8.3
		c1.9,0,3.4,1.5,3.4,3.4V13.3L16.8,13.3z"/>
	<path class="st0" d="M9.2,4.5c-2.6,0-4.7,2.1-4.7,4.7c0,2.6,2.1,4.7,4.7,4.7c2.6,0,4.7-2.1,4.7-4.7C14,6.6,11.8,4.5,9.2,4.5
		L9.2,4.5z M9.2,12.3c-1.7,0-3.1-1.4-3.1-3.1c0-1.7,1.4-3.1,3.1-3.1c1.7,0,3.1,1.4,3.1,3.1C12.3,10.9,10.9,12.3,9.2,12.3L9.2,12.3z"
		/>
	<path class="st0" d="M14.2,3.1c-0.3,0-0.6,0.1-0.8,0.4C13.1,3.7,13,4,13,4.3c0,0.3,0.1,0.6,0.4,0.8c0.2,0.2,0.5,0.4,0.8,0.4
		c0.3,0,0.6-0.1,0.8-0.4c0.2-0.2,0.4-0.5,0.4-0.8c0-0.3-0.1-0.6-0.4-0.8C14.8,3.2,14.5,3.1,14.2,3.1L14.2,3.1z"/>
</g>
</svg>
