<?xml version="1.0" encoding="utf-8"?>
<!-- Generator: Adobe Illustrator 22.1.0, SVG Export Plug-In . SVG Version: 6.00 Build 0)  -->
<svg version="1.1" id="Layer_1" xmlns="http://www.w3.org/2000/svg" xmlns:xlink="http://www.w3.org/1999/xlink" x="0px" y="0px"
	 viewBox="0 0 22.3 18" style="enable-background:new 0 0 22.3 18;" xml:space="preserve">
<style type="text/css">
	.st0{fill:#30374A;}
</style>
<g>
	<path class="st0" d="M22.2,2.6c-0.3-0.4-0.8-0.5-1.2-0.2l-2.6,1.8C18.1,4.4,18,4.7,18,4.9c0,0.2,0,0.3,0,0.5
		c0,5.3-4.1,10.9-10.9,10.9c-1.4,0-2.8-0.3-4-0.8l4-1.1c0.4-0.1,0.7-0.6,0.6-1c-0.1-0.4-0.6-0.7-1-0.6l-6.1,1.7
		c-0.3,0.1-0.6,0.4-0.6,0.7c0,0,0,0.1,0,0.1v0c0,0.3,0.1,0.5,0.4,0.7c2,1.3,4.4,2,6.8,2c4.7,0,7.7-2.2,9.3-4.1
		c2.1-2.3,3.2-5.4,3.2-8.5c0,0,0-0.1,0-0.1L22,3.8C22.3,3.5,22.4,3,22.2,2.6L22.2,2.6z"/>
	<path class="st0" d="M1.9,2.3l8.5,4.3c0.1,0.1,0.3,0.1,0.4,0.1c0.2,0,0.4-0.1,0.5-0.2c0.3-0.2,0.4-0.5,0.3-0.9
		c-0.1-0.2-0.1-0.5-0.1-0.7c0-1.8,1.5-3.3,3.3-3.3c0.9,0,1.8,0.4,2.4,1C17.4,3,17.7,3,18,2.9l2.6-1c0.4-0.2,0.7-0.6,0.5-1.1
		c-0.2-0.4-0.6-0.7-1.1-0.5l-2.1,0.8c-0.9-0.8-2-1.2-3.2-1.2C12.2,0,10,2,9.8,4.5L2.6,0.8c-0.4-0.2-0.9,0-1.1,0.4
		C1.3,1.6,1.4,2.1,1.9,2.3L1.9,2.3z"/>
	<path class="st0" d="M1.4,7.4l1.9,0.5c0.1,0,0.2,0,0.2,0c0.4,0,0.7-0.2,0.8-0.6c0.1-0.4-0.1-0.9-0.6-1L1.9,5.8
		C1.4,5.6,1,5.9,0.8,6.4C0.7,6.8,1,7.3,1.4,7.4L1.4,7.4z"/>
	<path class="st0" d="M3.1,9.9c-0.5,0-0.8,0.4-0.8,0.9c0,0.5,0.4,0.8,0.8,0.8c0,0,0,0,0,0L5,11.5c0.5,0,0.8-0.4,0.8-0.9
		c0-0.5-0.4-0.8-0.9-0.8L3.1,9.9L3.1,9.9z"/>
</g>
</svg>
