<?xml version="1.0" encoding="utf-8"?>
<!-- Generator: Adobe Illustrator 22.1.0, SVG Export Plug-In . SVG Version: 6.00 Build 0)  -->
<svg version="1.1" id="Layer_1" xmlns="http://www.w3.org/2000/svg" xmlns:xlink="http://www.w3.org/1999/xlink" x="0px" y="0px"
	 viewBox="0 0 143 115" style="enable-background:new 0 0 143 115;" xml:space="preserve">
<style type="text/css">
	.st0{fill:#30374A;}
	.st1{fill:#CA3593;}
</style>
<path class="st0" d="M15.5,97.5L15.5,97.5L15.5,97.5h112l0,0l0,0h6.2l0,0c1.2,0,2.2-0.5,3-1.2c0.8-0.8,1.3-1.8,1.3-3l0,0v-27
	c0-1.2-0.5-2.2-1.2-3l0,0c-0.8-0.8-1.8-1.2-3-1.2s-2.2,0.5-3,1.2c-0.8,0.8-1.2,1.8-1.2,3v16.8v2.5H127h-4.2H20.2H16h-2.5v-2.5V66.3
	c0-1.2-0.5-2.2-1.2-3c-0.8-0.8-1.8-1.2-3-1.2l0,0c-1.2,0-2.2,0.5-3,1.2c-0.8,0.8-1.2,1.8-1.2,3l0,0v26.9c0,1.2,0.5,2.2,1.2,3
	c0.8,0.8,1.8,1.2,3,1.2L15.5,97.5L15.5,97.5z M61.5,45.3H32.8c-3,0-5,0.4-6.1,1.5s-1.5,3-1.5,6.1v27.8h92.6V52.9c0-3-0.4-5-1.5-6.1
	s-3-1.5-6.1-1.5H80.9v-5h29.3c4.4,0,7.5,0.9,9.6,3s3,5.2,3,9.6v27.8h1.7V66.3c0-2.5,1-4.9,2.7-6.5c1.7-1.7,4-2.7,6.5-2.7
	s4.8,1,6.5,2.7l0,0c1.7,1.7,2.7,4,2.7,6.5v26.9l0,0c0,2.6-1.1,4.9-2.7,6.5c-1.7,1.7-4,2.7-6.5,2.7l0,0H130v10c0,1.4-1.1,2.5-2.5,2.5
	s-2.5-1.1-2.5-2.5v-10H18v10c0,1.4-1.1,2.5-2.5,2.5s-2.5-1.1-2.5-2.5v-10H9.2c-2.5,0-4.9-1-6.5-2.7C1,98.1,0,95.8,0,93.3v-27l0,0
	c0-2.5,1-4.9,2.7-6.5c1.7-1.7,4-2.7,6.5-2.7l0,0c2.5,0,4.9,1,6.5,2.7c1.7,1.7,2.7,4,2.7,6.5v14.3h1.7V52.9c0-4.4,0.9-7.5,3-9.6
	s5.2-3,9.6-3h28.7L61.5,45.3L61.5,45.3z"/>
<path class="st1" d="M68,6.4L68,6.4l-15.9,16c-1.7,1.7-1.9,3.6-1.2,5.2c0.3,0.7,0.7,1.3,1.2,1.8l0,0c0.5,0.5,1.1,1,1.8,1.2
	c1.6,0.7,3.6,0.5,5.2-1.2l3.1-3.1c1-1,2.6-1,3.5,0c0.5,0.5,0.7,1.1,0.7,1.8l0,0v30.4c0,1.4,0.6,2.6,1.5,3.5s2.2,1.5,3.5,1.5l0,0
	c1.4,0,2.6-0.6,3.5-1.5s1.5-2.2,1.5-3.5V28.1c0-1.4,1.1-2.5,2.5-2.5c0.7,0,1.3,0.3,1.8,0.7l3.1,3.1c1.7,1.7,3.6,1.9,5.2,1.2
	c0.7-0.3,1.3-0.7,1.8-1.2s1-1.1,1.2-1.8c0.7-1.6,0.5-3.6-1.2-5.2L75,6.5l0,0c-0.4-0.4-0.9-0.7-1.4-1S72.6,5.1,72,5l0,0h-0.2h-0.1
	h-0.1h-0.1h-0.1l0,0h-0.1l0,0l0,0c-0.1,0-0.1,0-0.2,0H71l0,0l0,0h-0.1l0,0H71h-0.1c-0.5,0.1-1,0.2-1.5,0.4C68.9,5.7,68.4,6,68,6.4
	L68,6.4z M68,6.5L68,6.5L68,6.5L68,6.5z M48.5,18.8L64.4,2.9l0,0c0.8-0.8,1.8-1.5,2.8-1.9c1-0.5,2-0.8,3.1-0.9c0.1,0,0.2,0,0.2,0
	h0.2l0,0h0.1h0.1l0,0l0,0l0,0l0,0l0,0l0,0h0.2l0,0l0,0c0.1,0,0.2,0,0.3,0l0,0l0,0l0,0h0.1h0.1h0.1h0.1l0,0l0,0h0.1l0,0H72h0.1h0.2
	l0,0h0.1l0,0l0,0c1.1,0.1,2.2,0.4,3.2,0.9s1.9,1.1,2.8,1.9l0,0l15.9,15.9c3.4,3.4,3.7,7.4,2.2,10.7c-0.5,1.3-1.3,2.4-2.3,3.4
	c-1,1-2.1,1.7-3.4,2.3c-3,1.3-6.5,1.2-9.6-1.2v24.5c0,2.8-1.1,5.3-2.9,7.1s-4.3,2.9-7.1,2.9l0,0c-2.8,0-5.3-1.1-7.1-2.9
	c-1.8-1.8-2.9-4.3-2.9-7.1V34c-3.1,2.4-6.6,2.5-9.6,1.2c-1.3-0.5-2.4-1.3-3.4-2.3l0,0l0,0c-1-1-1.7-2.1-2.3-3.4
	C44.9,26.2,45.2,22.2,48.5,18.8L48.5,18.8z M78.6,2.9L78.6,2.9L78.6,2.9L78.6,2.9z M71.7,5L71.7,5L71.7,5L71.7,5z"/>
</svg>
