<?xml version="1.0" encoding="utf-8"?>
<!-- Generator: Adobe Illustrator 22.1.0, SVG Export Plug-In . SVG Version: 6.00 Build 0)  -->
<svg version="1.1" id="Layer_1" xmlns="http://www.w3.org/2000/svg" xmlns:xlink="http://www.w3.org/1999/xlink" x="0px" y="0px"
	 viewBox="0 0 143 115" style="enable-background:new 0 0 143 115;" xml:space="preserve">
<style type="text/css">
	.st0{fill:#30374A;}
	.st1{fill:#CA3593;}
</style>
<g>
	<path class="st0" d="M102.3,31.6c-0.1,0.1-0.2,0.1-0.3,0.2L102.3,31.6L102.3,31.6z M99.3,68.8L99.3,68.8L99.3,68.8L99.3,68.8z
		 M103.2,72.2v15.4v13c0,4-1.6,7.6-4.2,10.2c-2.6,2.6-6.2,4.2-10.2,4.2H14.4c-4,0-7.6-1.6-10.2-4.2c-2.6-2.6-4.2-6.2-4.2-10.2v-13
		V27.4v-13c0-4,1.6-7.6,4.2-10.2C6.8,1.6,10.5,0,14.4,0h74.4c4,0,7.6,1.6,10.2,4.2c2.6,2.6,4.2,6.2,4.2,10.2v10.5l-5,3.4v-0.9v-13
		c0-2.6-1.1-4.9-2.8-6.6C93.8,6.1,91.4,5,88.8,5H14.4c-2.6,0-4.9,1.1-6.6,2.8C6.1,9.5,5,11.8,5,14.4v13v60.2v13
		c0,2.6,1.1,4.9,2.8,6.6s4.1,2.8,6.6,2.8h74.4c2.6,0,4.9-1.1,6.6-2.8c1.7-1.7,2.8-4.1,2.8-6.6v-13v-12L103.2,72.2L103.2,72.2z
		 M25.2,76.6c-1.4,0-2.5-1.1-2.5-2.5c0-1.4,1.1-2.5,2.5-2.5h12.6c1.4,0,2.5,1.1,2.5,2.5c0,1.4-1.1,2.5-2.5,2.5H25.2L25.2,76.6z
		 M25.2,54.1c-1.4,0-2.5-1.1-2.5-2.5c0-1.4,1.1-2.5,2.5-2.5h19.5c1.4,0,2.5,1.1,2.5,2.5c0,1.4-1.1,2.5-2.5,2.5H25.2L25.2,54.1z
		 M25.2,33.3c-1.4,0-2.5-1.1-2.5-2.5c0-1.4,1.1-2.5,2.5-2.5h52.9c1.4,0,2.5,1.1,2.5,2.5c0,1.4-1.1,2.5-2.5,2.5H25.2L25.2,33.3z"/>
	<path class="st1" d="M75,89.5l-24,1.6c-1,0.1-1.9-0.1-2.8-0.5c-1.1-0.5-2.1-1.4-2.8-2.4c-0.7-1-1.1-2.2-1.2-3.4
		c-0.1-0.9,0.1-1.9,0.5-2.8l10.2-21.8c0.1-0.2,0.2-0.4,0.3-0.6c0.4-1,0.8-1.9,1.8-2.8c0.1-0.1,0.3-0.2,0.5-0.3l0.1-0.1
		c0.2-0.1,0.3-0.2,0.5-0.3l54.3-37.2c0.1-0.1,0.2-0.1,0.3-0.2c4.4-2.9,9.6-3.9,14.4-2.9c4.9,0.9,9.4,3.6,12.4,8
		c0.1,0.1,0.1,0.2,0.2,0.3c2.9,4.4,3.9,9.6,2.9,14.4c-0.9,4.9-3.7,9.5-8.1,12.5L80.1,88c-0.1,0-0.2,0.2-0.5,0.3l0,0l-0.1,0.1
		c-0.1,0.1-0.1,0.1-0.2,0.2c-0.1,0.1-0.3,0.2-0.4,0.2c-1.1,0.5-2.1,0.6-3.2,0.6C75.5,89.4,75.3,89.4,75,89.5L75,89.5z M62.1,59.1
		l10.3,15.1l40.7-27.8c1.1-0.8,2.7-0.5,3.5,0.7c0.8,1.1,0.5,2.7-0.7,3.5L75.2,78.3l3.3,4.8l53.2-36.4c3.3-2.3,5.4-5.6,6-9.3
		c0.7-3.7,0-7.6-2.3-10.9l0,0c-2.3-3.3-5.6-5.4-9.3-6c-3.7-0.7-7.6,0-10.9,2.3l0,0L62.1,59.1L62.1,59.1z M73.4,84.6L58.9,63.3
		L49.2,84c0,0.1-0.1,0.2,0,0.4c0,0.3,0.2,0.7,0.4,1c0.2,0.3,0.5,0.6,0.8,0.7c0.1,0.1,0.2,0.1,0.4,0.1L73.4,84.6L73.4,84.6z"/>
</g>
</svg>
