<?xml version="1.0" encoding="utf-8"?>
<!-- Generator: Adobe Illustrator 22.1.0, SVG Export Plug-In . SVG Version: 6.00 Build 0)  -->
<svg version="1.1" id="Layer_1" xmlns="http://www.w3.org/2000/svg" xmlns:xlink="http://www.w3.org/1999/xlink" x="0px" y="0px"
	 viewBox="0 0 143 115" style="enable-background:new 0 0 143 115;" xml:space="preserve">
<style type="text/css">
	.st0{fill:#30374A;}
	.st1{fill:#CA3593;}
</style>
<g>
	<path class="st0" d="M34.3,45.3h-1.5c-3,0-5,0.4-6.1,1.5c-1.1,1.1-1.5,3-1.5,6.1v27.8h60.7l3.2,5h-2.9H22.7h-2.5H16h-2.5v-2.5V66.3
		c0-1.2-0.5-2.2-1.2-3c-0.8-0.8-1.8-1.2-3-1.2h0c-1.2,0-2.2,0.5-3,1.2c-0.8,0.8-1.2,1.8-1.2,3v0v26.9c0,1.2,0.5,2.2,1.2,3
		c0.8,0.8,1.8,1.2,3,1.2h6.2l0,0l0,0h111.9l0,0l0,0h6.2v0c1.2,0,2.2-0.5,3-1.2c0.8-0.8,1.3-1.8,1.3-3h0V66.3c0-1.2-0.5-2.2-1.2-3v0
		c-0.8-0.8-1.8-1.2-3-1.2c-1.2,0-2.2,0.5-3,1.2c-0.8,0.8-1.2,1.8-1.2,3v16.8v2.5H127h-4.2h-2.5h-10.8c0.3-1.6,0.2-3.4-0.3-5h8.6
		V52.9c0-3-0.4-5-1.5-6.1c-1.1-1.1-3-1.5-6.1-1.5h-5c0.4-1.6,0.7-3.2,0.9-4.8l0-0.2h4.1c4.4,0,7.5,0.9,9.6,3c2.1,2.1,3,5.2,3,9.6
		v27.8h1.7V66.3c0-2.5,1-4.9,2.7-6.5c1.7-1.7,4-2.7,6.5-2.7c2.5,0,4.8,1,6.5,2.7l0,0c1.7,1.7,2.7,4,2.7,6.5v26.9l0,0
		c0,2.6-1.1,4.9-2.7,6.5c-1.7,1.7-4,2.7-6.5,2.7v0H130v10c0,1.4-1.1,2.5-2.5,2.5c-1.4,0-2.5-1.1-2.5-2.5v-10H18v10
		c0,1.4-1.1,2.5-2.5,2.5c-1.4,0-2.5-1.1-2.5-2.5v-10H9.2c-2.5,0-4.8-1-6.5-2.7l0,0C1,98.1,0,95.8,0,93.3V66.3v0c0-2.5,1-4.9,2.7-6.5
		c1.7-1.7,4-2.7,6.5-2.7h0c2.5,0,4.9,1,6.5,2.7c1.7,1.7,2.7,4,2.7,6.5v14.3h1.7V52.9c0-4.4,0.9-7.5,3-9.6s5.2-3,9.6-3h0.7
		C33.6,41.9,33.9,43.6,34.3,45.3L34.3,45.3z"/>
	<path class="st1" d="M50.3,5.6c8.5-5.3,18.3-6.8,27.4-4.7c9.1,2,17.5,7.6,22.9,16.1c4.6,7.3,6.3,15.5,5.5,23.5
		c-0.8,7.5-3.9,14.6-9,20.4l11.2,17.6c1.5,2.3,1.9,5,1.3,7.5c0,0,0,0.1,0,0.1c-0.6,2.4-2,4.6-4.3,6.1c-0.1,0-0.1,0.1-0.2,0.1
		c-2.3,1.4-5,1.8-7.4,1.2l0,0l0,0c-2.5-0.6-4.7-2-6.2-4.3c0-0.1-0.1-0.1-0.1-0.2L80.1,71.5c-7.4,2.2-15.2,1.9-22.3-0.5
		c-7.5-2.6-14.2-7.6-18.9-14.9c0-0.1-0.1-0.1-0.1-0.2c-5.3-8.5-6.8-18.3-4.7-27.4c2-9.1,7.5-17.4,16-22.8
		C50.2,5.7,50.3,5.6,50.3,5.6L50.3,5.6z M57.5,17.2c5.3-3.4,11.5-4.3,17.2-3c5.7,1.3,10.9,4.7,14.3,10.1c3.4,5.3,4.3,11.5,3,17.2
		c-1.3,5.7-4.7,10.9-10,14.2c-0.1,0-0.1,0.1-0.2,0.1c-5.3,3.3-11.4,4.2-17.1,2.9c-5.7-1.3-10.9-4.7-14.2-10c0-0.1-0.1-0.1-0.1-0.2
		c-3.3-5.3-4.2-11.4-2.9-17.1C48.8,25.8,52.2,20.6,57.5,17.2L57.5,17.2z M73.7,19.1c-4.5-1-9.3-0.3-13.5,2.3
		c-4.2,2.6-6.9,6.7-7.9,11.2c-1,4.5-0.3,9.3,2.3,13.5l0,0c2.6,4.2,6.7,6.9,11.2,7.9c4.5,1,9.3,0.3,13.5-2.3l0,0
		c4.2-2.6,6.9-6.7,7.9-11.2c1-4.5,0.3-9.3-2.3-13.5C82.2,22.8,78.1,20.1,73.7,19.1L73.7,19.1z M76.7,5.8C68.8,4,60.3,5.2,52.9,9.9
		l0,0C45.5,14.5,40.8,21.7,39,29.6c-1.8,7.9-0.5,16.4,4.1,23.8l0,0c4,6.3,9.8,10.7,16.3,12.9c6.7,2.3,14,2.4,20.9-0.1l0,0
		c1.1-0.4,2.3,0,2.9,1l12.2,19.3l0,0c0.7,1.2,1.9,1.9,3.1,2.2l0,0c1.2,0.3,2.6,0.1,3.7-0.6c0,0,0.1-0.1,0.1-0.1
		c1.1-0.7,1.8-1.8,2.1-3l0-0.1c0.3-1.2,0.1-2.6-0.7-3.8L91.7,61.8l0,0c-0.6-1-0.5-2.3,0.3-3.1c5.1-5.1,8.2-11.8,9-18.8
		c0.8-6.9-0.7-14-4.7-20.3C91.7,12.3,84.5,7.5,76.7,5.8L76.7,5.8z"/>
</g>
</svg>
