<?xml version="1.0" encoding="utf-8"?>
<!-- Generator: Adobe Illustrator 22.1.0, SVG Export Plug-In . SVG Version: 6.00 Build 0)  -->
<svg version="1.1" id="Layer_1" xmlns="http://www.w3.org/2000/svg" xmlns:xlink="http://www.w3.org/1999/xlink" x="0px" y="0px"
	 viewBox="0 0 143 115" style="enable-background:new 0 0 143 115;" xml:space="preserve">
<style type="text/css">
	.st0{fill:#30374A;}
	.st1{fill:#303749;}
	.st2{fill:#CA3593;}
</style>
<g>
	<path class="st0" d="M14.4,13h114.2c4,0,7.6,1.6,10.2,4.2c2.6,2.6,4.2,6.2,4.2,10.2v17.8l0,0v37.5l0,0v17.8c0,4-1.6,7.6-4.2,10.2
		c-2.6,2.6-6.2,4.2-10.2,4.2H14.4c-4,0-7.6-1.6-10.2-4.2c-2.6-2.6-4.2-6.2-4.2-10.2V82.8l0,0V45.3l0,0V27.4c0-4,1.6-7.6,4.2-10.2
		C6.8,14.6,10.5,13,14.4,13L14.4,13z M5,42.8h8.9c1.4,0,2.5,1.1,2.5,2.5v37.5c0,1.4-1.1,2.5-2.5,2.5H5v15.3c0,2.6,1.1,4.9,2.8,6.6
		c1.7,1.7,4.1,2.8,6.6,2.8h114.2c2.6,0,4.9-1.1,6.6-2.8c1.7-1.7,2.8-4.1,2.8-6.6V85.3h-8.9c-1.4,0-2.5-1.1-2.5-2.5V45.3
		c0-1.4,1.1-2.5,2.5-2.5h8.9V27.4c0-2.6-1.1-4.9-2.8-6.6c-1.7-1.7-4.1-2.8-6.6-2.8H14.4c-2.6,0-4.9,1.1-6.6,2.8
		C6.1,22.5,5,24.8,5,27.4V42.8L5,42.8z M11.4,47.8H5v32.5h6.4V47.8L11.4,47.8z M138,47.8h-6.4v32.5h6.4V47.8L138,47.8z"/>
	<path class="st1" d="M55.1,0h32.9c1.2,0,2.1,0.8,2.4,1.9l4.4,12.8c0.4,1.3-0.3,2.7-1.6,3.2C92.9,18,92.6,18,92.3,18v0H50.7
		c-1.4,0-2.5-1.1-2.5-2.5c0-0.3,0.1-0.7,0.2-1l4.4-12.8C53.1,0.7,54,0,55.1,0L55.1,0L55.1,0z M24,2.5h4.6c1.9,0,3.6,0.8,4.9,2l0,0
		l0,0l0,0c1.3,1.3,2,3,2,4.9v6.1c0,1.4-1.1,2.5-2.5,2.5H19.5c-1.4,0-2.5-1.1-2.5-2.5V9.4c0-1.9,0.8-3.6,2-4.9
		C20.3,3.2,22.1,2.5,24,2.5L24,2.5z M28.6,7.5H24c-0.5,0-1,0.2-1.4,0.6C22.2,8.4,22,8.9,22,9.4V13h8.5V9.4c0-0.5-0.2-1-0.6-1.4l0,0
		C29.6,7.7,29.1,7.5,28.6,7.5L28.6,7.5z M86.2,5H56.8l-2.7,8h34.7L86.2,5L86.2,5z"/>
	<path class="st2" d="M71.5,28.8c9.7,0,18.5,3.9,24.9,10.3c6.4,6.4,10.3,15.2,10.3,24.9c0,9.7-3.9,18.5-10.3,24.9
		C90,95.3,81.2,99.2,71.5,99.2c-9.7,0-18.5-3.9-24.9-10.3C40.2,82.5,36.3,73.7,36.3,64c0-9.7,3.9-18.5,10.3-24.9
		C53,32.7,61.8,28.8,71.5,28.8L71.5,28.8z M92.9,42.6c-5.5-5.5-13-8.9-21.4-8.9c-8.3,0-15.9,3.4-21.4,8.9c-5.5,5.5-8.9,13-8.9,21.4
		c0,8.3,3.4,15.9,8.9,21.4c5.5,5.5,13,8.9,21.4,8.9c8.3,0,15.9-3.4,21.4-8.9c5.5-5.5,8.9-13,8.9-21.4
		C101.7,55.7,98.3,48.1,92.9,42.6L92.9,42.6z"/>
	<path class="st2" d="M71.5,41.2c6.3,0,12,2.6,16.1,6.7c4.1,4.1,6.7,9.8,6.7,16.1c0,6.3-2.6,12-6.7,16.1c-4.1,4.1-9.8,6.7-16.1,6.7
		c-6.3,0-12-2.6-16.1-6.7c-4.1-4.1-6.7-9.8-6.7-16.1c0-6.3,2.6-12,6.7-16.1C59.5,43.8,65.2,41.2,71.5,41.2L71.5,41.2z M84.1,51.4
		c-3.2-3.2-7.7-5.2-12.6-5.2s-9.4,2-12.6,5.2c-3.2,3.2-5.2,7.7-5.2,12.6c0,4.9,2,9.4,5.2,12.6c3.2,3.2,7.7,5.2,12.6,5.2
		s9.4-2,12.6-5.2c3.2-3.2,5.2-7.7,5.2-12.6C89.3,59.1,87.3,54.6,84.1,51.4L84.1,51.4z"/>
	<path class="st2" d="M63.3,64c0,1.4-1.1,2.5-2.5,2.5s-2.5-1.1-2.5-2.5c0-3.7,1.5-7,3.9-9.4c2.4-2.4,5.7-3.9,9.4-3.9
		c1.4,0,2.5,1.1,2.5,2.5c0,1.4-1.1,2.5-2.5,2.5c-2.3,0-4.3,0.9-5.8,2.4C64.2,59.7,63.3,61.7,63.3,64L63.3,64z"/>
</g>
</svg>
