<?xml version="1.0" encoding="utf-8"?>
<!-- Generator: Adobe Illustrator 22.1.0, SVG Export Plug-In . SVG Version: 6.00 Build 0)  -->
<svg version="1.1" id="Layer_1" xmlns="http://www.w3.org/2000/svg" xmlns:xlink="http://www.w3.org/1999/xlink" x="0px" y="0px"
	 viewBox="0 0 143 115" style="enable-background:new 0 0 143 115;" xml:space="preserve">
<style type="text/css">
	.st0{fill:#CC3794;}
	.st1{fill:#CA3593;}
	.st2{fill:#30374A;}
</style>
<g>
	<path class="st0" d="M11.8,98.7c0,4.5,1.8,8.6,4.8,11.5c2.9,2.9,7,4.8,11.5,4.8c4.5,0,8.6-1.8,11.5-4.8c2.9-2.9,4.8-7,4.8-11.5
		c0-4.5-1.8-8.6-4.8-11.5c-2.9-3-7-4.8-11.5-4.8c-4.5,0-8.6,1.8-11.5,4.8C13.6,90.2,11.8,94.2,11.8,98.7L11.8,98.7z M20.1,106.7
		c-2-2-3.3-4.9-3.3-8c0-3.1,1.3-5.9,3.3-8c2-2,4.9-3.3,8-3.3c3.1,0,5.9,1.3,8,3.3c2,2,3.3,4.9,3.3,8c0,3.1-1.3,5.9-3.3,8
		c-2,2-4.8,3.3-8,3.3C24.9,110,22.1,108.7,20.1,106.7L20.1,106.7z"/>
	<path class="st1" d="M92.6,98.7c0,4.4,1.7,8.3,4.5,11.3H2.5c-1.4,0-2.5,1.1-2.5,2.5c0,1.4,1.1,2.5,2.5,2.5h106.3l0,0l0,0h31.6
		c1.4,0,2.5-1.1,2.5-2.5c0-1.4-1.1-2.5-2.5-2.5h-19.9c2.8-2.9,4.5-6.9,4.5-11.3c0-4.5-1.8-8.6-4.8-11.5c-2.9-2.9-7-4.8-11.5-4.8v0
		c-4.5,0-8.6,1.8-11.5,4.8C94.4,90.2,92.6,94.2,92.6,98.7L92.6,98.7z M109,110h-0.3c-3.1,0-5.8-1.3-7.8-3.3c-2-2-3.3-4.9-3.3-8
		c0-3.1,1.3-5.9,3.3-8c2-2,4.9-3.3,8-3.3v0c3.1,0,5.9,1.3,8,3.3c2,2,3.3,4.9,3.3,8c0,3.1-1.3,5.9-3.3,8C114.8,108.7,112,110,109,110
		L109,110z M28,96.2c-1.4,0-2.5,1.1-2.5,2.5c0,1.4,1.1,2.5,2.5,2.5h0.1c1.4,0,2.5-1.1,2.5-2.5C30.6,97.3,29.4,96.2,28,96.2L28,96.2
		L28,96.2z M108.8,96.2c-1.4,0-2.5,1.1-2.5,2.5c0,1.4,1.1,2.5,2.5,2.5h0.1c1.4,0,2.5-1.1,2.5-2.5C111.4,97.3,110.3,96.2,108.8,96.2
		L108.8,96.2L108.8,96.2z"/>
	<path class="st2" d="M143,28.7L143,28.7L143,28.7v-6V11.3c0-3.1-1.3-5.9-3.3-8c-2-2-4.9-3.3-8-3.3h-73c-3.1,0-5.9,1.3-8,3.3
		c-2,2-3.3,4.9-3.3,8v11.4v12H21c-3.5,0-6.9,1.2-9.6,3.2c-2.7,2-4.8,4.9-5.7,8.3L0.2,65.1C0.1,65.4,0,65.7,0,66v23.6
		c0,1.4,1.1,2.5,2.5,2.5h10.6c0.8-1.8,2-3.5,3.4-4.9l0.1-0.1H5V66.3l0.1-0.4h34.1v0c1.4,0,2.5-1.1,2.5-2.5L42,39.7h5.4v38.6v8.9h-8
		l0.1,0.1c1.4,1.4,2.6,3.1,3.4,4.9h7h44c0.8-1.8,2-3.5,3.4-4.9l0.1-0.1h-45v-8.9V37.2V22.7V11.3c0-1.7,0.7-3.3,1.8-4.4
		C55.4,5.7,57,5,58.7,5h73c1.7,0,3.3,0.7,4.4,1.8c1.1,1.1,1.8,2.7,1.8,4.4v11.4v3.5h-32c-1.4,0-2.5,1.1-2.5,2.5s1.1,2.5,2.5,2.5h32
		v12.4h-32c-1.4,0-2.5,1.1-2.5,2.5s1.1,2.5,2.5,2.5h32v12.4h-32c-1.4,0-2.5,1.1-2.5,2.5c0,1.4,1.1,2.5,2.5,2.5h32v12.3v8.9h-17.7
		l0.1,0.1c1.4,1.4,2.6,3.1,3.4,4.9h16.8c1.4,0,2.5-1.1,2.5-2.5V78.2V63.4l0,0l0,0V46.1l0,0l0,0V28.7L143,28.7z M100.3,91.3
		C100.4,91.3,100.4,91.3,100.3,91.3L100.3,91.3L100.3,91.3z M104.4,88.4c1.4-0.6,2.9-0.9,4.5-0.9v0
		C107.3,87.4,105.8,87.8,104.4,88.4L104.4,88.4z M32.7,88.5c0.9,0.4,1.8,1,2.6,1.7C34.6,89.5,33.7,88.9,32.7,88.5L32.7,88.5z
		 M36.4,91.2c0.1,0.1,0.1,0.2,0.2,0.3C36.5,91.3,36.5,91.2,36.4,91.2L36.4,91.2z M21,39.7H37l-0.3,21.2H6.6l3.9-13.3
		c0.7-2.4,2.1-4.3,4-5.7C16.2,40.5,18.5,39.7,21,39.7L21,39.7z M108.8,82.5c-2.2,0-4.4,0.5-6.3,1.3
		C104.5,82.9,106.6,82.5,108.8,82.5L108.8,82.5L108.8,82.5z"/>
</g>
</svg>
