<?xml version="1.0" encoding="utf-8"?>
<!-- Generator: Adobe Illustrator 22.1.0, SVG Export Plug-In . SVG Version: 6.00 Build 0)  -->
<svg version="1.1" id="Layer_1" xmlns="http://www.w3.org/2000/svg" xmlns:xlink="http://www.w3.org/1999/xlink" x="0px" y="0px"
	 viewBox="0 0 143 115" style="enable-background:new 0 0 143 115;" xml:space="preserve">
<style type="text/css">
	.st0{fill:#CC3794;}
	.st1{fill:#CA3593;}
	.st2{fill:#30374A;}
</style>
<g>
	<path class="st0" d="M131.2,98.7c0,4.5-1.8,8.6-4.8,11.5c-2.9,2.9-7,4.8-11.5,4.8c-4.5,0-8.6-1.8-11.5-4.8c-2.9-2.9-4.8-7-4.8-11.5
		c0-4.5,1.8-8.6,4.8-11.5c2.9-3,7-4.8,11.5-4.8c4.5,0,8.6,1.8,11.5,4.8C129.4,90.2,131.2,94.2,131.2,98.7L131.2,98.7z M122.9,106.7
		c2-2,3.3-4.9,3.3-8s-1.3-5.9-3.3-8c-2-2-4.9-3.3-8-3.3c-3.1,0-5.9,1.3-8,3.3c-2,2-3.3,4.9-3.3,8c0,3.1,1.3,5.9,3.3,8
		c2,2,4.8,3.3,8,3.3C118.1,110,120.9,108.7,122.9,106.7L122.9,106.7z"/>
	<path class="st1" d="M50.4,98.7c0,4.4-1.7,8.3-4.5,11.3h94.6c1.4,0,2.5,1.1,2.5,2.5s-1.1,2.5-2.5,2.5H34.2l0,0l0,0H2.5
		c-1.4,0-2.5-1.1-2.5-2.5s1.1-2.5,2.5-2.5h19.9c-2.8-2.9-4.5-6.9-4.5-11.3c0-4.5,1.8-8.6,4.8-11.5c2.9-2.9,7-4.8,11.5-4.8v0
		c4.5,0,8.6,1.8,11.5,4.8C48.6,90.2,50.4,94.2,50.4,98.7L50.4,98.7z M34,110h0.3c3.1,0,5.8-1.3,7.8-3.3c2-2,3.3-4.9,3.3-8
		s-1.3-5.9-3.3-8c-2-2-4.9-3.3-8-3.3v0c-3.1,0-5.9,1.3-8,3.3c-2,2-3.3,4.9-3.3,8c0,3.1,1.3,5.9,3.3,8C28.2,108.7,31,110,34,110
		L34,110z M115,96.2c1.4,0,2.5,1.1,2.5,2.5c0,1.4-1.1,2.5-2.5,2.5h-0.1c-1.4,0-2.5-1.1-2.5-2.5C112.4,97.3,113.6,96.2,115,96.2
		L115,96.2L115,96.2z M34.2,96.2c1.4,0,2.5,1.1,2.5,2.5c0,1.4-1.1,2.5-2.5,2.5h-0.1c-1.4,0-2.5-1.1-2.5-2.5
		C31.6,97.3,32.7,96.2,34.2,96.2L34.2,96.2L34.2,96.2z"/>
	<path class="st2" d="M0,28.7L0,28.7L0,28.7v-6V11.3c0-3.1,1.3-5.9,3.3-8c2-2,4.9-3.3,8-3.3h73c3.1,0,5.9,1.3,8,3.3
		c2,2,3.3,4.9,3.3,8v11.4v12H122c3.5,0,6.9,1.2,9.6,3.2c2.7,2,4.8,4.9,5.7,8.3l5.5,18.9c0.1,0.3,0.2,0.6,0.2,0.9v23.6
		c0,1.4-1.1,2.5-2.5,2.5h-10.6c-0.8-1.8-2-3.5-3.4-4.9l-0.1-0.1H138V66.4l-0.1-0.4h-34.1v0c-1.4,0-2.5-1.1-2.5-2.5L101,39.7h-5.4
		v38.6v8.9h8l-0.1,0.1c-1.4,1.4-2.6,3.1-3.4,4.9h-7H49c-0.8-1.8-2-3.5-3.4-4.9l-0.1-0.1h45v-8.9V37.2V22.7V11.3
		c0-1.7-0.7-3.3-1.8-4.4S86,5,84.3,5h-73C9.5,5,8,5.7,6.8,6.8C5.7,8,5,9.5,5,11.3v11.4v3.5h32c1.4,0,2.5,1.1,2.5,2.5
		s-1.1,2.5-2.5,2.5H5v12.4h32c1.4,0,2.5,1.1,2.5,2.5c0,1.4-1.1,2.5-2.5,2.5H5v12.4h32c1.4,0,2.5,1.1,2.5,2.5c0,1.4-1.1,2.5-2.5,2.5
		H5v12.3v8.9h17.7l-0.1,0.1c-1.4,1.4-2.6,3.1-3.4,4.9H2.5C1.1,92.1,0,91,0,89.6V78.2V63.4l0,0l0,0V46.1l0,0l0,0V28.7L0,28.7z
		 M42.7,91.3C42.6,91.3,42.6,91.3,42.7,91.3L42.7,91.3L42.7,91.3z M38.6,88.4c-1.4-0.6-2.9-0.9-4.5-0.9v0
		C35.7,87.4,37.2,87.8,38.6,88.4L38.6,88.4z M110.3,88.5c-0.9,0.4-1.8,1-2.6,1.7C108.4,89.5,109.3,88.9,110.3,88.5L110.3,88.5z
		 M106.6,91.2c-0.1,0.1-0.1,0.2-0.2,0.3C106.5,91.3,106.5,91.2,106.6,91.2L106.6,91.2z M122,39.7H106l0.3,21.2h30.2l-3.9-13.3
		c-0.7-2.4-2.1-4.3-4-5.7C126.8,40.5,124.5,39.7,122,39.7L122,39.7z M34.2,82.5c2.2,0,4.4,0.5,6.3,1.3
		C38.5,82.9,36.4,82.5,34.2,82.5L34.2,82.5L34.2,82.5z"/>
</g>
</svg>
